<svg xmlns="http://www.w3.org/2000/svg" viewBox="0 0 1024 1024"><defs><linearGradient id="sky0" x1="0" y1="0" x2="0" y2="1"><stop offset="0" stop-color="#4A5D8A"/><stop offset="0.55" stop-color="#B0743B"/><stop offset="1" stop-color="#E8B36A"/></linearGradient><radialGradient id="gl1"><stop offset="0" stop-color="#E8B36A" stop-opacity="0.55"/><stop offset="0.5" stop-color="#E8B36A" stop-opacity="0.22000000000000003"/><stop offset="1" stop-color="#E8B36A" stop-opacity="0"/></radialGradient><radialGradient id="gl2"><stop offset="0" stop-color="#F5E7BE" stop-opacity="0.3"/><stop offset="0.5" stop-color="#F5E7BE" stop-opacity="0.12"/><stop offset="1" stop-color="#F5E7BE" stop-opacity="0"/></radialGradient><radialGradient id="gl3"><stop offset="0" stop-color="#FFE9A8" stop-opacity="0.55"/><stop offset="0.5" stop-color="#FFE9A8" stop-opacity="0.22000000000000003"/><stop offset="1" stop-color="#FFE9A8" stop-opacity="0"/></radialGradient><radialGradient id="vg4" cx="0.5" cy="0.5" r="0.75"><stop offset="0.55" stop-color="#000" stop-opacity="0"/><stop offset="1" stop-color="#000" stop-opacity="0.2"/></radialGradient></defs><rect x="0" y="0" width="1024" height="1024" fill="url(#sky0)"/><path d="M 512 120 L 90.8 -457.7 L 142.8 -457.7 Z" fill="#F5E7BE" opacity="0.12"/><path d="M 512 120 L 191.4 -524.7 L 287.4 -524.7 Z" fill="#F5E7BE" opacity="0.12"/><path d="M 512 120 L 346.9 -566 L 398.9 -566 Z" fill="#F5E7BE" opacity="0.12"/><path d="M 512 120 L 464 -580 L 560 -580 Z" fill="#F5E7BE" opacity="0.12"/><path d="M 512 120 L 625.1 -566 L 677.1 -566 Z" fill="#F5E7BE" opacity="0.12"/><path d="M 512 120 L 736.6 -524.7 L 832.6 -524.7 Z" fill="#F5E7BE" opacity="0.12"/><path d="M 512 120 L 881.2 -457.7 L 933.2 -457.7 Z" fill="#F5E7BE" opacity="0.12"/><circle cx="512" cy="150" r="192" fill="url(#gl1)"/><circle cx="512" cy="150" r="60" fill="#F5E7BE"/><g opacity="0.7" fill="#F5E7BE"><ellipse cx="200" cy="240" rx="150" ry="46"/><ellipse cx="117.5" cy="256.1" rx="90" ry="34.5"/><ellipse cx="282.5" cy="253.8" rx="97.5" ry="32.199999999999996"/><ellipse cx="215" cy="217" rx="75" ry="32.199999999999996"/></g><g opacity="0.7" fill="#F5E7BE"><ellipse cx="840" cy="200" rx="160" ry="50"/><ellipse cx="752" cy="217.5" rx="96" ry="37.5"/><ellipse cx="928" cy="215" rx="104" ry="35"/><ellipse cx="856" cy="175" rx="80" ry="35"/></g><path d="M0 620 Q 122.88 420 307.2 520 T 634.88 480 T 1024 540 V 1024 H 0 Z" fill="#4F7C9A"/><path d="M 122.88 485 q 60 -40 130 -10" stroke="#A9C4CF" stroke-width="8" fill="none" opacity="0.45" stroke-linecap="round"/><path d="M0 710 Q 174.07999999999998 510 348.15999999999997 610 T 665.6 570 T 1024 630 V 1024 H 0 Z" fill="#1E4B6E"/><path d="M 174.07999999999998 575 q 60 -40 130 -10" stroke="#A9C4CF" stroke-width="8" fill="none" opacity="0.45" stroke-linecap="round"/><path d="M0 800 Q 225.28 600 389.12 700 T 696.3199999999999 660 T 1024 720 V 1024 H 0 Z" fill="#12304A"/><path d="M 225.28 665 q 60 -40 130 -10" stroke="#A9C4CF" stroke-width="8" fill="none" opacity="0.45" stroke-linecap="round"/><g transform="translate(520 640) scale(0.6)"><path d="M -420 -150 Q -470 -40 -380 0 H 380 Q 470 -40 420 -150 Z" fill="#6E4629"/><g stroke="#3B2A1E" stroke-width="6" opacity="0.6"><path d="M -430 -110 H 430"/><path d="M -410 -70 H 410"/><path d="M -390 -30 H 390"/></g><rect x="-300" y="-330" width="600" height="180" rx="14" fill="#8A5A36"/><path d="M -330 -330 L 0 -440 L 330 -330 Z" fill="#3B2A1E"/><rect x="-60" y="-290" width="120" height="120" rx="60" fill="#F5E7BE"/><rect x="-230" y="-280" width="70" height="70" rx="35" fill="#E2C177"/><rect x="160" y="-280" width="70" height="70" rx="35" fill="#E2C177"/></g><circle cx="520" cy="502" r="120" fill="url(#gl2)"/><path d="M0 880 Q 122.88 720 307.2 800 T 634.88 768 T 1024 816 V 1024 H 0 Z" fill="#1E4B6E"/><path d="M 122.88 772 q 60 -40 130 -10" stroke="#A9C4CF" stroke-width="8" fill="none" opacity="0.45" stroke-linecap="round"/><path d="M0 952 Q 174.07999999999998 792 348.15999999999997 872 T 665.6 840 T 1024 888 V 1024 H 0 Z" fill="#12304A"/><path d="M 174.07999999999998 844 q 60 -40 130 -10" stroke="#A9C4CF" stroke-width="8" fill="none" opacity="0.45" stroke-linecap="round"/><path d="M0 1024 Q 225.28 864 389.12 944 T 696.3199999999999 912 T 1024 960 V 1024 H 0 Z" fill="#081A2A"/><path d="M 225.28 916 q 60 -40 130 -10" stroke="#A9C4CF" stroke-width="8" fill="none" opacity="0.45" stroke-linecap="round"/><g transform="translate(300 420) scale(0.8 0.8)"><ellipse cx="0" cy="0" rx="34" ry="16" fill="#F0E4C0"/><path d="M -6 -6 q -20 -50 30 -60 q -10 30 6 50 Z" fill="#F0E4C0"/><circle cx="30" cy="-8" r="10" fill="#F0E4C0"/><path d="M 40 -8 l 12 3 l -12 4 Z" fill="#E2C177"/><path d="M -34 0 l -20 -8 l 4 14 Z" fill="#F0E4C0"/></g><circle cx="800" cy="420" r="55.199999999999996" fill="url(#gl3)"/><ellipse cx="800" cy="423.6" rx="6.6" ry="9.6" fill="#5A4A2A"/><circle cx="800" cy="428.4" r="7.199999999999999" fill="#FFF4C8"/><circle cx="800" cy="428.4" r="3.5999999999999996" fill="#FFFBEA"/><path d="M 795.2 417.6 q -14.399999999999999 -12 -7.199999999999999 -19.2 M 804.8 417.6 q 14.399999999999999 -12 7.199999999999999 -19.2" stroke="#FFF4C8" stroke-width="2.4" fill="none" opacity="0.8"/><rect width="1024" height="1024" fill="url(#vg4)"/></svg>