<svg xmlns="http://www.w3.org/2000/svg" viewBox="1090 1060 220 90"><defs><filter id="rough205" x="-12%" y="-12%" width="124%" height="124%"><feTurbulence type="fractalNoise" baseFrequency="0.030 0.045" numOctaves="2" seed="8" result="n"/><feDisplacementMap in="SourceGraphic" in2="n" scale="11"/></filter><linearGradient id="lg206" x1="0" y1="0" x2="1" y2="0"><stop offset="0" stop-color="#7E5F42"/><stop offset="1" stop-color="#5E4632"/></linearGradient></defs><g filter="url(#rough205)"><path d="M 1134.2 1132 C 1167.8 1109.6 1219 1128.8 1255.8 1112.8" stroke="#5A7A4A" stroke-width="4" fill="none"/>
        <g><ellipse cx="1167.8" cy="1116" rx="12.8" ry="8.8" fill="#3C5A3F"/><circle cx="1167" cy="1115" r="4" fill="#5A7A4A"/><circle cx="1162" cy="1118" r="4" fill="#5A7A4A"/><circle cx="1163" cy="1117" r="3" fill="#5A7A4A"/><circle cx="1165" cy="1124" r="2" fill="#3C5A3F"/><circle cx="1165" cy="1116" r="3" fill="#5A7A4A"/><circle cx="1169" cy="1114" r="3" fill="#5A7A4A"/><circle cx="1175" cy="1110" r="3" fill="#5A7A4A"/><circle cx="1176" cy="1117" r="3" fill="#3C5A3F"/><circle cx="1157" cy="1116" r="2" fill="#7E9C5F"/><circle cx="1179" cy="1113" r="3" fill="#5A7A4A"/><circle cx="1175" cy="1121" r="3" fill="#3C5A3F"/><circle cx="1178" cy="1116" r="4" fill="#3C5A3F"/><circle cx="1163" cy="1110" r="1" fill="#A5BE7B" opacity="0.9"/><circle cx="1160" cy="1112" r="2" fill="#A5BE7B" opacity="0.9"/><circle cx="1164" cy="1110" r="2" fill="#A5BE7B" opacity="0.9"/><circle cx="1162" cy="1110" r="1" fill="#A5BE7B" opacity="0.9"/><circle cx="1165" cy="1109" r="2" fill="#A5BE7B" opacity="0.9"/></g><g><ellipse cx="1207.8" cy="1122.4" rx="11.200000000000001" ry="8" fill="#3C5A3F"/><circle cx="1200" cy="1125" r="3" fill="#5A7A4A"/><circle cx="1206" cy="1122" r="3" fill="#5A7A4A"/><circle cx="1217" cy="1120" r="3" fill="#5A7A4A"/><circle cx="1199" cy="1126" r="3" fill="#5A7A4A"/><circle cx="1215" cy="1117" r="3" fill="#5A7A4A"/><circle cx="1204" cy="1119" r="2" fill="#7E9C5F"/><circle cx="1217" cy="1125" r="2" fill="#3C5A3F"/><circle cx="1211" cy="1116" r="3" fill="#7E9C5F"/><circle cx="1199" cy="1120" r="3" fill="#7E9C5F"/><circle cx="1201" cy="1121" r="3" fill="#7E9C5F"/><circle cx="1203" cy="1117" r="4" fill="#7E9C5F"/><circle cx="1204" cy="1122" r="3" fill="#5A7A4A"/><circle cx="1200" cy="1120" r="1" fill="#A5BE7B" opacity="0.9"/><circle cx="1202" cy="1117" r="2" fill="#A5BE7B" opacity="0.9"/><circle cx="1205" cy="1117" r="1" fill="#A5BE7B" opacity="0.9"/><circle cx="1205" cy="1116" r="1" fill="#A5BE7B" opacity="0.9"/><circle cx="1203" cy="1117" r="2" fill="#A5BE7B" opacity="0.9"/></g></g><ellipse cx="1188.6" cy="1121.6" rx="12.8" ry="9.600000000000001" fill="#D8C48E"/><ellipse cx="1185.3999999999999" cy="1118.3999999999999" rx="4" ry="2.8000000000000003" fill="#FBF0D0" opacity="0.7"/><path d="M 1188.6 1112 q 2 -6 8 -8" stroke="#5A7A4A" stroke-width="2.4" fill="none"/><ellipse cx="1231.8" cy="1124" rx="10.88" ry="8.16" fill="#E2C177"/><ellipse cx="1229.08" cy="1121.28" rx="3.4000000000000004" ry="2.3800000000000003" fill="#FBF0D0" opacity="0.7"/><path d="M 1231.8 1115.84 q 2 -6 8 -8" stroke="#5A7A4A" stroke-width="2.4" fill="none"/></svg>