<svg xmlns="http://www.w3.org/2000/svg" viewBox="600 830 270 200"><defs><filter id="rough168" x="-12%" y="-12%" width="124%" height="124%"><feTurbulence type="fractalNoise" baseFrequency="0.030 0.045" numOctaves="2" seed="8" result="n"/><feDisplacementMap in="SourceGraphic" in2="n" scale="11"/></filter><linearGradient id="lg169" x1="0" y1="0" x2="1" y2="0"><stop offset="0" stop-color="#7E5F42"/><stop offset="1" stop-color="#5E4632"/></linearGradient><radialGradient id="sh170"><stop offset="0" stop-color="#0E1710" stop-opacity="0.18"/><stop offset="1" stop-color="#0E1710" stop-opacity="0"/></radialGradient><filter id="rough171" x="-12%" y="-12%" width="124%" height="124%"><feTurbulence type="fractalNoise" baseFrequency="0.030 0.045" numOctaves="2" seed="8" result="n"/><feDisplacementMap in="SourceGraphic" in2="n" scale="11"/></filter></defs><ellipse cx="743" cy="1024" rx="45.6" ry="10" fill="url(#sh170)"/><g filter="url(#rough168)"><path d="M 735 1020 C 733 988.08 737 974.4 735 959.2" stroke="#5E4632" stroke-width="6.84" fill="none" stroke-linecap="round"/></g><g filter="url(#rough171)"><ellipse cx="735" cy="930.3199999999999" rx="41.04" ry="31.92" fill="#3C5A3F"/><circle cx="704" cy="923" r="12" fill="#7E9C5F"/><circle cx="734" cy="924" r="8" fill="#5A7A4A"/><circle cx="713" cy="922" r="9" fill="#7E9C5F"/><circle cx="701" cy="927" r="11" fill="#7E9C5F"/><circle cx="732" cy="911" r="11" fill="#7E9C5F"/><circle cx="704" cy="943" r="9" fill="#5A7A4A"/><circle cx="700" cy="932" r="13" fill="#5A7A4A"/><circle cx="707" cy="911" r="8" fill="#7E9C5F"/><circle cx="749" cy="931" r="13" fill="#5A7A4A"/><circle cx="744" cy="907" r="8" fill="#7E9C5F"/><circle cx="728" cy="903" r="8" fill="#7E9C5F"/><circle cx="755" cy="953" r="9" fill="#3C5A3F"/><circle cx="714" cy="915" r="10" fill="#7E9C5F"/><circle cx="707" cy="918" r="4" fill="#A5BE7B" opacity="0.9"/><circle cx="721" cy="908" r="5" fill="#A5BE7B" opacity="0.9"/><circle cx="707" cy="919" r="6" fill="#A5BE7B" opacity="0.9"/><circle cx="710" cy="915" r="5" fill="#A5BE7B" opacity="0.9"/><circle cx="722" cy="907" r="4" fill="#A5BE7B" opacity="0.9"/></g></svg>