<svg xmlns="http://www.w3.org/2000/svg" viewBox="0 0 1600 1200"><defs><linearGradient id="sky0" x1="0" y1="0" x2="0" y2="1"><stop offset="0" stop-color="#2F5A8C"/><stop offset="0.6" stop-color="#7FA6C0"/><stop offset="1" stop-color="#D9E2D2"/></linearGradient><radialGradient id="gl1"><stop offset="0" stop-color="#E8B36A" stop-opacity="0.55"/><stop offset="0.5" stop-color="#E8B36A" stop-opacity="0.22000000000000003"/><stop offset="1" stop-color="#E8B36A" stop-opacity="0"/></radialGradient><radialGradient id="vg2" cx="0.5" cy="0.5" r="0.75"><stop offset="0.55" stop-color="#000" stop-opacity="0"/><stop offset="1" stop-color="#000" stop-opacity="0.14"/></radialGradient><radialGradient id="gl3"><stop offset="0" stop-color="#FFE9A8" stop-opacity="0.55"/><stop offset="0.5" stop-color="#FFE9A8" stop-opacity="0.22000000000000003"/><stop offset="1" stop-color="#FFE9A8" stop-opacity="0"/></radialGradient></defs><rect x="0" y="0" width="1600" height="1200" fill="url(#sky0)"/><circle cx="1240" cy="220" r="224" fill="url(#gl1)"/><circle cx="1240" cy="220" r="70" fill="#F5E7BE"/><path d="M0 760 Q 352 640 800 700 T 1600 676 V 1200 H 0 Z" fill="#7C9F6E" opacity="1"/><path d="M0 850 Q 352 750 800 800 T 1600 780 V 1200 H 0 Z" fill="#5F8A5A" opacity="1"/><rect x="0" y="985" width="1600" height="215" fill="#4F7C4A"/><path d="M 1414 732.5 q 58.3 -22 116.5 0 t 77.7 0" stroke="#E8C089" stroke-width="7" fill="none" stroke-linecap="round" opacity="0.5"/><path d="M 1276.6 787.5 q 85.2 -22 170.4 0 t 113.6 0" stroke="#E8C089" stroke-width="7" fill="none" stroke-linecap="round" opacity="0.5"/><path d="M 1249.4 735.7 q 97 -22 193.9 0 t 129.3 0" stroke="#E8C089" stroke-width="7" fill="none" stroke-linecap="round" opacity="0.5"/><path d="M 979.8 778.6 q 51.7 -22 103.4 0 t 69 0" stroke="#E8C089" stroke-width="7" fill="none" stroke-linecap="round" opacity="0.5"/><path d="M 1197 783.5 q 81.3 -22 162.7 0 t 108.5 0" stroke="#E8C089" stroke-width="7" fill="none" stroke-linecap="round" opacity="0.5"/><path d="M 998.7 767.2 q 64.6 -22 129.2 0 t 86.1 0" stroke="#E8C089" stroke-width="7" fill="none" stroke-linecap="round" opacity="0.5"/><path d="M 1580.1 703.9 q 107.4 -22 214.8 0 t 143.2 0" stroke="#E8C089" stroke-width="7" fill="none" stroke-linecap="round" opacity="0.5"/><path d="M 943.5 712.8 q 51 -22 101.9 0 t 68 0" stroke="#E8C089" stroke-width="7" fill="none" stroke-linecap="round" opacity="0.5"/><path d="M 905 794 q 71.3 -22 142.5 0 t 95 0" stroke="#E8C089" stroke-width="7" fill="none" stroke-linecap="round" opacity="0.5"/><path d="M 1344.3 798.8 q 54.2 -22 108.3 0 t 72.2 0" stroke="#E8C089" stroke-width="7" fill="none" stroke-linecap="round" opacity="0.5"/><path d="M 1227.6 734.8 q 40.1 -22 80.2 0 t 53.5 0" stroke="#E8C089" stroke-width="7" fill="none" stroke-linecap="round" opacity="0.5"/><path d="M 1264.9 709.5 q 40.5 -22 81 0 t 54 0" stroke="#E8C089" stroke-width="7" fill="none" stroke-linecap="round" opacity="0.5"/><path d="M 1572.2 780.5 q 36 -22 72.1 0 t 48.1 0" stroke="#E8C089" stroke-width="7" fill="none" stroke-linecap="round" opacity="0.5"/><path d="M 1587.5 707.3 q 111.8 -22 223.7 0 t 149.1 0" stroke="#E8C089" stroke-width="7" fill="none" stroke-linecap="round" opacity="0.5"/><path d="M 1269.2 719.5 q 88.9 -22 177.8 0 t 118.5 0" stroke="#E8C089" stroke-width="7" fill="none" stroke-linecap="round" opacity="0.5"/><path d="M 936 777.8 q 107.1 -22 214.2 0 t 142.8 0" stroke="#E8C089" stroke-width="7" fill="none" stroke-linecap="round" opacity="0.5"/><path d="M 1479 744.6 q 110 -22 220 0 t 146.7 0" stroke="#E8C089" stroke-width="7" fill="none" stroke-linecap="round" opacity="0.5"/><path d="M 949.8 771.4 q 112.4 -22 224.9 0 t 149.9 0" stroke="#E8C089" stroke-width="7" fill="none" stroke-linecap="round" opacity="0.5"/><path d="M 1487.2 764.2 q 76.9 -22 153.8 0 t 102.5 0" stroke="#E8C089" stroke-width="7" fill="none" stroke-linecap="round" opacity="0.5"/><path d="M 923.2 784.9 q 101.4 -22 202.9 0 t 135.2 0" stroke="#E8C089" stroke-width="7" fill="none" stroke-linecap="round" opacity="0.5"/><g transform="translate(700 985) scale(1.2)"><path d="M -110 0 Q -80 -60 0 -70 Q 80 -60 110 0 Z" fill="#B0743B"/><ellipse cx="0" cy="-16" rx="40" ry="18" fill="#3A2A1E"/></g><g transform="translate(560 970) scale(1.2 1.2)"><ellipse cx="-30" cy="0" rx="26" ry="16" fill="#3A2A1E"/><ellipse cx="4" cy="-4" rx="16" ry="12" fill="#3A2A1E"/><circle cx="30" cy="-8" r="13" fill="#3A2A1E"/><path d="M -10 6 l -18 26 M 4 8 l -4 28 M 16 6 l 18 24 M -20 -8 l -22 -20 M 12 -12 l 12 -26 M 36 -18 l 14 -18 M 40 -14 l 20 -8" stroke="#3A2A1E" stroke-width="4" fill="none" stroke-linecap="round"/></g><g transform="translate(640 975) scale(1 1)"><ellipse cx="-30" cy="0" rx="26" ry="16" fill="#3A2A1E"/><ellipse cx="4" cy="-4" rx="16" ry="12" fill="#3A2A1E"/><circle cx="30" cy="-8" r="13" fill="#3A2A1E"/><path d="M -10 6 l -18 26 M 4 8 l -4 28 M 16 6 l 18 24 M -20 -8 l -22 -20 M 12 -12 l 12 -26 M 36 -18 l 14 -18 M 40 -14 l 20 -8" stroke="#3A2A1E" stroke-width="4" fill="none" stroke-linecap="round"/></g><g transform="translate(860 972) scale(-1.1 1.1)"><ellipse cx="-30" cy="0" rx="26" ry="16" fill="#3A2A1E"/><ellipse cx="4" cy="-4" rx="16" ry="12" fill="#3A2A1E"/><circle cx="30" cy="-8" r="13" fill="#3A2A1E"/><path d="M -10 6 l -18 26 M 4 8 l -4 28 M 16 6 l 18 24 M -20 -8 l -22 -20 M 12 -12 l 12 -26 M 36 -18 l 14 -18 M 40 -14 l 20 -8" stroke="#3A2A1E" stroke-width="4" fill="none" stroke-linecap="round"/></g><g transform="translate(940 968) scale(-0.9 0.9)"><ellipse cx="-30" cy="0" rx="26" ry="16" fill="#3A2A1E"/><ellipse cx="4" cy="-4" rx="16" ry="12" fill="#3A2A1E"/><circle cx="30" cy="-8" r="13" fill="#3A2A1E"/><path d="M -10 6 l -18 26 M 4 8 l -4 28 M 16 6 l 18 24 M -20 -8 l -22 -20 M 12 -12 l 12 -26 M 36 -18 l 14 -18 M 40 -14 l 20 -8" stroke="#3A2A1E" stroke-width="4" fill="none" stroke-linecap="round"/></g><g stroke="#2E5D48" stroke-width="6" stroke-linecap="round" fill="none"><path d="M 1152.4 985 q -10 -18.9 4 -31.5 M 1166.4 985 q 8 -15.8 -2 -25.2"/><path d="M 729.9 985 q -10 -19.8 4 -33 M 743.9 985 q 8 -16.5 -2 -26.4"/><path d="M 1220.8 985 q -10 -29.5 4 -49.2 M 1234.8 985 q 8 -24.6 -2 -39.4"/><path d="M 778.8 985 q -10 -21.9 4 -36.5 M 792.8 985 q 8 -18.2 -2 -29.2"/><path d="M 421.2 985 q -10 -31.3 4 -52.1 M 435.2 985 q 8 -26.1 -2 -41.7"/><path d="M 311.9 985 q -10 -20 4 -33.3 M 325.9 985 q 8 -16.7 -2 -26.7"/><path d="M 1142.1 985 q -10 -29.4 4 -49.1 M 1156.1 985 q 8 -24.5 -2 -39.3"/><path d="M 1270 985 q -10 -39.1 4 -65.2 M 1284 985 q 8 -32.6 -2 -52.2"/><path d="M 517.8 985 q -10 -34.6 4 -57.6 M 531.8 985 q 8 -28.8 -2 -46.1"/><path d="M 458.8 985 q -10 -34.1 4 -56.9 M 472.8 985 q 8 -28.4 -2 -45.5"/><path d="M 842.3 985 q -10 -38 4 -63.3 M 856.3 985 q 8 -31.6 -2 -50.6"/><path d="M 863.9 985 q -10 -18.3 4 -30.5 M 877.9 985 q 8 -15.2 -2 -24.4"/><path d="M 1403.8 985 q -10 -25.4 4 -42.4 M 1417.8 985 q 8 -21.2 -2 -33.9"/><path d="M 1498.9 985 q -10 -36.5 4 -60.8 M 1512.9 985 q 8 -30.4 -2 -48.6"/><path d="M 672.9 985 q -10 -35.2 4 -58.6 M 686.9 985 q 8 -29.3 -2 -46.9"/><path d="M 246.9 985 q -10 -26.8 4 -44.7 M 260.9 985 q 8 -22.4 -2 -35.8"/><path d="M 1156.3 985 q -10 -18 4 -30.1 M 1170.3 985 q 8 -15 -2 -24"/><path d="M 13.4 985 q -10 -29.5 4 -49.1 M 27.4 985 q 8 -24.6 -2 -39.3"/><path d="M 1380.9 985 q -10 -32.5 4 -54.1 M 1394.9 985 q 8 -27.1 -2 -43.3"/><path d="M 1091.3 985 q -10 -36.9 4 -61.5 M 1105.3 985 q 8 -30.7 -2 -49.2"/><path d="M 935 985 q -10 -32 4 -53.3 M 949 985 q 8 -26.6 -2 -42.6"/><path d="M 113.5 985 q -10 -26.9 4 -44.9 M 127.5 985 q 8 -22.4 -2 -35.9"/><path d="M 849.5 985 q -10 -38.1 4 -63.5 M 863.5 985 q 8 -31.8 -2 -50.8"/><path d="M 660.8 985 q -10 -29.1 4 -48.6 M 674.8 985 q 8 -24.3 -2 -38.8"/><path d="M 794.8 985 q -10 -31.7 4 -52.8 M 808.8 985 q 8 -26.4 -2 -42.3"/><path d="M 1241.7 985 q -10 -38.5 4 -64.2 M 1255.7 985 q 8 -32.1 -2 -51.4"/><path d="M 1063.4 985 q -10 -26.9 4 -44.9 M 1077.4 985 q 8 -22.4 -2 -35.9"/><path d="M 1102.3 985 q -10 -34.8 4 -58 M 1116.3 985 q 8 -29 -2 -46.4"/><path d="M 746.1 985 q -10 -41.5 4 -69.2 M 760.1 985 q 8 -34.6 -2 -55.3"/><path d="M 1409.2 985 q -10 -35.1 4 -58.5 M 1423.2 985 q 8 -29.3 -2 -46.8"/><path d="M 1083.4 985 q -10 -40.9 4 -68.1 M 1097.4 985 q 8 -34.1 -2 -54.5"/><path d="M 1224.3 985 q -10 -19.4 4 -32.3 M 1238.3 985 q 8 -16.1 -2 -25.8"/><path d="M 105.8 985 q -10 -30.9 4 -51.5 M 119.8 985 q 8 -25.8 -2 -41.2"/><path d="M 1384.8 985 q -10 -26.3 4 -43.8 M 1398.8 985 q 8 -21.9 -2 -35"/><path d="M 864.3 985 q -10 -25 4 -41.6 M 878.3 985 q 8 -20.8 -2 -33.3"/><path d="M 741.3 985 q -10 -31.2 4 -52.1 M 755.3 985 q 8 -26 -2 -41.7"/><path d="M 924.5 985 q -10 -27.4 4 -45.6 M 938.5 985 q 8 -22.8 -2 -36.5"/><path d="M 1209.9 985 q -10 -22.2 4 -36.9 M 1223.9 985 q 8 -18.5 -2 -29.5"/><path d="M 1524.2 985 q -10 -33.4 4 -55.7 M 1538.2 985 q 8 -27.9 -2 -44.6"/><path d="M 1201.1 985 q -10 -36.5 4 -60.8 M 1215.1 985 q 8 -30.4 -2 -48.6"/></g><rect width="1600" height="1200" fill="url(#vg2)"/><circle cx="400" cy="560" r="55.199999999999996" fill="url(#gl3)"/><ellipse cx="400" cy="563.6" rx="6.6" ry="9.6" fill="#5A4A2A"/><circle cx="400" cy="568.4" r="7.199999999999999" fill="#FFF4C8"/><circle cx="400" cy="568.4" r="3.5999999999999996" fill="#FFFBEA"/><path d="M 395.2 557.6 q -14.399999999999999 -12 -7.199999999999999 -19.2 M 404.8 557.6 q 14.399999999999999 -12 7.199999999999999 -19.2" stroke="#FFF4C8" stroke-width="2.4" fill="none" opacity="0.8"/></svg>