<svg xmlns="http://www.w3.org/2000/svg" viewBox="0 0 1024 1024"><defs><linearGradient id="sky0" x1="0" y1="0" x2="0" y2="1"><stop offset="0" stop-color="#4A5D8A"/><stop offset="0.55" stop-color="#B0743B"/><stop offset="1" stop-color="#E8B36A"/></linearGradient><radialGradient id="gl1"><stop offset="0" stop-color="#E8B36A" stop-opacity="0.55"/><stop offset="0.5" stop-color="#E8B36A" stop-opacity="0.22000000000000003"/><stop offset="1" stop-color="#E8B36A" stop-opacity="0"/></radialGradient><radialGradient id="gl2"><stop offset="0" stop-color="#A9C4CF" stop-opacity="0.35"/><stop offset="0.5" stop-color="#A9C4CF" stop-opacity="0.13999999999999999"/><stop offset="1" stop-color="#A9C4CF" stop-opacity="0"/></radialGradient><radialGradient id="vg3" cx="0.5" cy="0.5" r="0.75"><stop offset="0.55" stop-color="#000" stop-opacity="0"/><stop offset="1" stop-color="#000" stop-opacity="0.16"/></radialGradient><radialGradient id="gl4"><stop offset="0" stop-color="#FFE9A8" stop-opacity="0.55"/><stop offset="0.5" stop-color="#FFE9A8" stop-opacity="0.22000000000000003"/><stop offset="1" stop-color="#FFE9A8" stop-opacity="0"/></radialGradient></defs><rect x="0" y="0" width="1024" height="1024" fill="url(#sky0)"/><circle cx="800" cy="220" r="224" fill="url(#gl1)"/><circle cx="800" cy="220" r="70" fill="#F5E7BE"/><line x1="898" y1="220" x2="968" y2="220" stroke="#F5E7BE" stroke-width="8.4" stroke-linecap="round" opacity="0.7"/><line x1="884.9" y1="269" x2="945.5" y2="304" stroke="#F5E7BE" stroke-width="8.4" stroke-linecap="round" opacity="0.7"/><line x1="849" y1="304.9" x2="884" y2="365.5" stroke="#F5E7BE" stroke-width="8.4" stroke-linecap="round" opacity="0.7"/><line x1="800" y1="318" x2="800" y2="388" stroke="#F5E7BE" stroke-width="8.4" stroke-linecap="round" opacity="0.7"/><line x1="751" y1="304.9" x2="716" y2="365.5" stroke="#F5E7BE" stroke-width="8.4" stroke-linecap="round" opacity="0.7"/><line x1="715.1" y1="269" x2="654.5" y2="304" stroke="#F5E7BE" stroke-width="8.4" stroke-linecap="round" opacity="0.7"/><line x1="702" y1="220" x2="632" y2="220" stroke="#F5E7BE" stroke-width="8.4" stroke-linecap="round" opacity="0.7"/><line x1="715.1" y1="171" x2="654.5" y2="136" stroke="#F5E7BE" stroke-width="8.4" stroke-linecap="round" opacity="0.7"/><line x1="751" y1="135.1" x2="716" y2="74.5" stroke="#F5E7BE" stroke-width="8.4" stroke-linecap="round" opacity="0.7"/><line x1="800" y1="122" x2="800" y2="52" stroke="#F5E7BE" stroke-width="8.4" stroke-linecap="round" opacity="0.7"/><line x1="849" y1="135.1" x2="884" y2="74.5" stroke="#F5E7BE" stroke-width="8.4" stroke-linecap="round" opacity="0.7"/><line x1="884.9" y1="171" x2="945.5" y2="136" stroke="#F5E7BE" stroke-width="8.4" stroke-linecap="round" opacity="0.7"/><rect x="0" y="640" width="1024" height="384" fill="#B0743B"/><g stroke="#7A4A2E" stroke-width="5" fill="none" stroke-linecap="round" opacity="0.7"><path d="M 538.4 660.8 l 89.7 -11.9 l 52.5 12.8"/><path d="M 4.6 976.8 l 117.4 -11.6 l 76 25.3"/><path d="M 22.9 677.7 l 70.8 11.4 l 57.9 29.2"/><path d="M 416.4 728.5 l 118.9 17.8 l 36.1 47.8"/><path d="M 873.9 998.5 l 92.9 17.8 l 77.7 47.8"/><path d="M 223.5 850.1 l 48.5 -8.3 l 32.8 43.3"/><path d="M 414.7 860.1 l 82 15.4 l 54.3 45"/><path d="M 730.7 857.1 l 54.5 14.1 l 68.6 18.2"/><path d="M 429.4 784.6 l 89.2 -19.1 l 39.9 21.7"/><path d="M 262.8 764.1 l 53.7 -5.1 l 25.4 24.4"/></g><g transform="translate(512 760) scale(1.1)" fill="#4F7C9A"><ellipse cx="0" cy="0" rx="140" ry="34" opacity="0.9"/><ellipse cx="0" cy="0" rx="90" ry="20" fill="#1E4B6E" opacity="0.6"/><path d="M -60 -10 q -10 -60 -40 -90 M 0 -20 q 0 -70 -10 -110 M 50 -12 q 20 -60 50 -80 M 20 -18 q 10 -50 40 -60" stroke="#4F7C9A" stroke-width="10" fill="none" stroke-linecap="round"/><circle cx="-110" cy="-90" r="8"/><circle cx="60" cy="-120" r="7"/><circle cx="110" cy="-70" r="6"/></g><circle cx="512" cy="720" r="260" fill="url(#gl2)"/><g stroke="#2E5D48" stroke-width="6" stroke-linecap="round" fill="none"><path d="M 203.5 860 q -10 -38.4 4 -64 M 217.5 860 q 8 -32 -2 -51.2"/><path d="M 145.2 860 q -10 -37.7 4 -62.9 M 159.2 860 q 8 -31.4 -2 -50.3"/><path d="M 741.2 860 q -10 -34.5 4 -57.6 M 755.2 860 q 8 -28.8 -2 -46"/><path d="M 269 860 q -10 -40.1 4 -66.8 M 283 860 q 8 -33.4 -2 -53.4"/><path d="M 134 860 q -10 -33.2 4 -55.3 M 148 860 q 8 -27.6 -2 -44.2"/><path d="M 714.8 860 q -10 -32.1 4 -53.5 M 728.8 860 q 8 -26.7 -2 -42.8"/><path d="M 290.2 860 q -10 -40.5 4 -67.5 M 304.2 860 q 8 -33.8 -2 -54"/><path d="M 293.9 860 q -10 -35.5 4 -59.2 M 307.9 860 q 8 -29.6 -2 -47.4"/><path d="M 657.4 860 q -10 -26.8 4 -44.7 M 671.4 860 q 8 -22.3 -2 -35.7"/><path d="M 548.4 860 q -10 -39.5 4 -65.9 M 562.4 860 q 8 -32.9 -2 -52.7"/><path d="M 886.3 860 q -10 -28.9 4 -48.2 M 900.3 860 q 8 -24.1 -2 -38.6"/><path d="M 894.7 860 q -10 -22.6 4 -37.6 M 908.7 860 q 8 -18.8 -2 -30.1"/><path d="M 693.5 860 q -10 -26 4 -43.3 M 707.5 860 q 8 -21.7 -2 -34.7"/><path d="M 49.2 860 q -10 -39 4 -65.1 M 63.2 860 q 8 -32.5 -2 -52"/></g><rect width="1024" height="1024" fill="url(#vg3)"/><circle cx="260" cy="520" r="55.199999999999996" fill="url(#gl4)"/><ellipse cx="260" cy="523.6" rx="6.6" ry="9.6" fill="#5A4A2A"/><circle cx="260" cy="528.4" r="7.199999999999999" fill="#FFF4C8"/><circle cx="260" cy="528.4" r="3.5999999999999996" fill="#FFFBEA"/><path d="M 255.2 517.6 q -14.399999999999999 -12 -7.199999999999999 -19.2 M 264.8 517.6 q 14.399999999999999 -12 7.199999999999999 -19.2" stroke="#FFF4C8" stroke-width="2.4" fill="none" opacity="0.8"/></svg>