<svg xmlns="http://www.w3.org/2000/svg" viewBox="0 0 1600 1200"><defs><linearGradient id="sky0" x1="0" y1="0" x2="0" y2="1"><stop offset="0" stop-color="#4A5D8A"/><stop offset="0.55" stop-color="#B0743B"/><stop offset="1" stop-color="#E8B36A"/></linearGradient><radialGradient id="gl1"><stop offset="0" stop-color="#E8B36A" stop-opacity="0.55"/><stop offset="0.5" stop-color="#E8B36A" stop-opacity="0.22000000000000003"/><stop offset="1" stop-color="#E8B36A" stop-opacity="0"/></radialGradient><mask id="cr2"><rect x="177.66658963211268" y="736.8259494507962" width="13.558206991024019" height="13.558206991024019" fill="black"/><circle cx="184.44569312762468" cy="743.6050529463082" r="5.214694996547699" fill="white"/><circle cx="186.84445282603662" cy="742.5621139469987" r="4.5889315969619755" fill="black"/></mask><radialGradient id="gl3"><stop offset="0" stop-color="#8A5348" stop-opacity="0.35"/><stop offset="0.5" stop-color="#8A5348" stop-opacity="0.13999999999999999"/><stop offset="1" stop-color="#8A5348" stop-opacity="0"/></radialGradient><mask id="cr4"><rect x="1218.6194678139286" y="749.6953930021494" width="11.853332204675675" height="11.853332204675675" fill="black"/><circle cx="1224.5461339162664" cy="755.6220591044873" r="4.55897392487526" fill="white"/><circle cx="1226.643261921709" cy="754.7102643195122" r="4.0118970538902285" fill="black"/></mask><radialGradient id="gl5"><stop offset="0" stop-color="#8A5348" stop-opacity="0.35"/><stop offset="0.5" stop-color="#8A5348" stop-opacity="0.13999999999999999"/><stop offset="1" stop-color="#8A5348" stop-opacity="0"/></radialGradient><mask id="cr6"><rect x="1648.2844670200575" y="682.2925031485686" width="24.25211018568993" height="24.25211018568993" fill="black"/><circle cx="1660.4105221129025" cy="694.4185582414135" r="9.327734686803819" fill="white"/><circle cx="1664.7012800688324" cy="692.5530113040527" r="8.20840652438736" fill="black"/></mask><radialGradient id="gl7"><stop offset="0" stop-color="#8A5348" stop-opacity="0.35"/><stop offset="0.5" stop-color="#8A5348" stop-opacity="0.13999999999999999"/><stop offset="1" stop-color="#8A5348" stop-opacity="0"/></radialGradient><radialGradient id="vg8" cx="0.5" cy="0.5" r="0.75"><stop offset="0.55" stop-color="#000" stop-opacity="0"/><stop offset="1" stop-color="#000" stop-opacity="0.16"/></radialGradient></defs><rect x="0" y="0" width="1600" height="1200" fill="url(#sky0)"/><circle cx="1200" cy="300" r="256" fill="url(#gl1)"/><circle cx="1200" cy="300" r="80" fill="#F5E7BE"/><line x1="1312" y1="300" x2="1392" y2="300" stroke="#F5E7BE" stroke-width="9.6" stroke-linecap="round" opacity="0.7"/><line x1="1297" y1="356" x2="1366.3" y2="396" stroke="#F5E7BE" stroke-width="9.6" stroke-linecap="round" opacity="0.7"/><line x1="1256" y1="397" x2="1296" y2="466.3" stroke="#F5E7BE" stroke-width="9.6" stroke-linecap="round" opacity="0.7"/><line x1="1200" y1="412" x2="1200" y2="492" stroke="#F5E7BE" stroke-width="9.6" stroke-linecap="round" opacity="0.7"/><line x1="1144" y1="397" x2="1104" y2="466.3" stroke="#F5E7BE" stroke-width="9.6" stroke-linecap="round" opacity="0.7"/><line x1="1103" y1="356" x2="1033.7" y2="396" stroke="#F5E7BE" stroke-width="9.6" stroke-linecap="round" opacity="0.7"/><line x1="1088" y1="300" x2="1008" y2="300" stroke="#F5E7BE" stroke-width="9.6" stroke-linecap="round" opacity="0.7"/><line x1="1103" y1="244" x2="1033.7" y2="204" stroke="#F5E7BE" stroke-width="9.6" stroke-linecap="round" opacity="0.7"/><line x1="1144" y1="203" x2="1104" y2="133.7" stroke="#F5E7BE" stroke-width="9.6" stroke-linecap="round" opacity="0.7"/><line x1="1200" y1="188" x2="1200" y2="108" stroke="#F5E7BE" stroke-width="9.6" stroke-linecap="round" opacity="0.7"/><line x1="1256" y1="203" x2="1296" y2="133.7" stroke="#F5E7BE" stroke-width="9.6" stroke-linecap="round" opacity="0.7"/><line x1="1297" y1="244" x2="1366.3" y2="204" stroke="#F5E7BE" stroke-width="9.6" stroke-linecap="round" opacity="0.7"/><rect x="-40" y="780.9" width="166.3" height="119.1" fill="#8A5348"/><rect x="133.5" y="801.6" width="101.8" height="98.4" fill="#8A5348"/><path d="M 151.85384939920155 801.6185347829014 Q 151.85384939920155 764.1379144952148 184.44569312762468 759.2491379359514 Q 217.0375368560478 764.1379144952148 217.0375368560478 801.6185347829014 Z" fill="#8A5348"/><line x1="184.44569312762468" y1="759.2491379359514" x2="184.44569312762468" y2="748.819747942856" stroke="#8A5348" stroke-width="2.933265935558081"/><circle cx="184.44569312762468" cy="743.6050529463082" r="13.558206991024019" fill="url(#gl3)"/><rect x="177.66658963211268" y="736.8259494507962" width="13.558206991024019" height="13.558206991024019" fill="#8A5348" mask="url(#cr2)"/><rect x="242.6" y="710.8" width="116.5" height="189.2" fill="#8A5348"/><rect x="366.3" y="661.3" width="167.1" height="238.7" fill="#8A5348"/><rect x="540.6" y="779.7" width="110.7" height="120.3" fill="#8A5348"/><rect x="658.6" y="760.9" width="174.1" height="139.1" fill="#8A5348"/><rect x="839.9" y="686.4" width="168.1" height="213.6" fill="#8A5348"/><rect x="1015.1" y="707.1" width="157.7" height="192.9" fill="#8A5348"/><rect x="1180" y="806.3" width="89" height="93.7" fill="#8A5348"/><path d="M 1196.0525468857961 806.3406440187246 Q 1196.0525468857961 773.5730189336837 1224.5461339162664 769.2989808791131 Q 1253.0397209467367 773.5730189336837 1253.0397209467367 806.3406440187246 Z" fill="#8A5348"/><line x1="1224.5461339162664" y1="769.2989808791131" x2="1224.5461339162664" y2="760.1810330293625" stroke="#8A5348" stroke-width="2.5644228327423333"/><circle cx="1224.5461339162664" cy="755.6220591044873" r="11.853332204675675" fill="url(#gl5)"/><rect x="1218.6194678139286" y="749.6953930021494" width="11.853332204675675" height="11.853332204675675" fill="#8A5348" mask="url(#cr4)"/><rect x="1276.3" y="735" width="121.4" height="165" fill="#8A5348"/><rect x="1404.9" y="809.9" width="157.2" height="90.1" fill="#8A5348"/><rect x="1569.3" y="798.2" width="182.2" height="101.8" fill="#8A5348"/><path d="M 1602.1121803203787 798.189606632106 Q 1602.1121803203787 731.1465135707035 1660.4105221129025 722.401762301825 Q 1718.7088639054264 731.1465135707035 1718.7088639054264 798.189606632106 Z" fill="#8A5348"/><line x1="1660.4105221129025" y1="722.401762301825" x2="1660.4105221129025" y2="703.7462929282174" stroke="#8A5348" stroke-width="5.246850761327147"/><circle cx="1660.4105221129025" cy="694.4185582414135" r="24.25211018568993" fill="url(#gl7)"/><rect x="1648.2844670200575" y="682.2925031485686" width="24.25211018568993" height="24.25211018568993" fill="#8A5348" mask="url(#cr6)"/><rect x="0" y="985" width="1600" height="215" fill="#4A2F22"/><rect width="1600" height="1200" fill="url(#vg8)"/></svg>