<svg xmlns="http://www.w3.org/2000/svg" viewBox="0 0 1600 1200"><defs><linearGradient id="sky0" x1="0" y1="0" x2="0" y2="1"><stop offset="0" stop-color="#B0743B"/><stop offset="0.6" stop-color="#D19A56"/><stop offset="1" stop-color="#E8C089"/></linearGradient><radialGradient id="gl1"><stop offset="0" stop-color="#E8B36A" stop-opacity="0.55"/><stop offset="0.5" stop-color="#E8B36A" stop-opacity="0.22000000000000003"/><stop offset="1" stop-color="#E8B36A" stop-opacity="0"/></radialGradient><radialGradient id="vg2" cx="0.5" cy="0.5" r="0.75"><stop offset="0.55" stop-color="#000" stop-opacity="0"/><stop offset="1" stop-color="#000" stop-opacity="0.16"/></radialGradient><radialGradient id="gl3"><stop offset="0" stop-color="#FFE9A8" stop-opacity="0.55"/><stop offset="0.5" stop-color="#FFE9A8" stop-opacity="0.22000000000000003"/><stop offset="1" stop-color="#FFE9A8" stop-opacity="0"/></radialGradient></defs><rect x="0" y="0" width="1600" height="1200" fill="url(#sky0)"/><circle cx="1240" cy="240" r="320" fill="url(#gl1)"/><circle cx="1240" cy="240" r="100" fill="#F5E7BE"/><line x1="1380" y1="240" x2="1480" y2="240" stroke="#F5E7BE" stroke-width="12" stroke-linecap="round" opacity="0.7"/><line x1="1361.2" y1="310" x2="1447.8" y2="360" stroke="#F5E7BE" stroke-width="12" stroke-linecap="round" opacity="0.7"/><line x1="1310" y1="361.2" x2="1360" y2="447.8" stroke="#F5E7BE" stroke-width="12" stroke-linecap="round" opacity="0.7"/><line x1="1240" y1="380" x2="1240" y2="480" stroke="#F5E7BE" stroke-width="12" stroke-linecap="round" opacity="0.7"/><line x1="1170" y1="361.2" x2="1120" y2="447.8" stroke="#F5E7BE" stroke-width="12" stroke-linecap="round" opacity="0.7"/><line x1="1118.8" y1="310" x2="1032.2" y2="360" stroke="#F5E7BE" stroke-width="12" stroke-linecap="round" opacity="0.7"/><line x1="1100" y1="240" x2="1000" y2="240" stroke="#F5E7BE" stroke-width="12" stroke-linecap="round" opacity="0.7"/><line x1="1118.8" y1="170" x2="1032.2" y2="120" stroke="#F5E7BE" stroke-width="12" stroke-linecap="round" opacity="0.7"/><line x1="1170" y1="118.8" x2="1120" y2="32.2" stroke="#F5E7BE" stroke-width="12" stroke-linecap="round" opacity="0.7"/><line x1="1240" y1="100" x2="1240" y2="0" stroke="#F5E7BE" stroke-width="12" stroke-linecap="round" opacity="0.7"/><line x1="1310" y1="118.8" x2="1360" y2="32.2" stroke="#F5E7BE" stroke-width="12" stroke-linecap="round" opacity="0.7"/><line x1="1361.2" y1="170" x2="1447.8" y2="120" stroke="#F5E7BE" stroke-width="12" stroke-linecap="round" opacity="0.7"/><path d="M0 780 Q 480 690 992 770 T 1600 730 V 1200 H 0 Z" fill="#D9A05B"/><path d="M0 870 Q 640 790 1248 860 T 1600 840 V 1200 H 0 Z" fill="#B0743B"/><rect x="0" y="985" width="1600" height="215" fill="#B0743B"/><path d="M 1152.4 807.2 q 71.6 -22 143.2 0 t 95.4 0" stroke="#E8C089" stroke-width="7" fill="none" stroke-linecap="round" opacity="0.35"/><path d="M 119.9 941.2 q 73.5 -22 147.1 0 t 98 0" stroke="#E8C089" stroke-width="7" fill="none" stroke-linecap="round" opacity="0.35"/><path d="M 778.8 829.9 q 56.5 -22 113.1 0 t 75.4 0" stroke="#E8C089" stroke-width="7" fill="none" stroke-linecap="round" opacity="0.35"/><path d="M 884.2 836.1 q 42.5 -22 85 0 t 56.7 0" stroke="#E8C089" stroke-width="7" fill="none" stroke-linecap="round" opacity="0.35"/><path d="M 1142.1 888.2 q 97.9 -22 195.8 0 t 130.5 0" stroke="#E8C089" stroke-width="7" fill="none" stroke-linecap="round" opacity="0.35"/><path d="M 1407.6 859.9 q 89.9 -22 179.7 0 t 119.8 0" stroke="#E8C089" stroke-width="7" fill="none" stroke-linecap="round" opacity="0.35"/><path d="M 458.8 924.3 q 77.1 -22 154.1 0 t 102.7 0" stroke="#E8C089" stroke-width="7" fill="none" stroke-linecap="round" opacity="0.35"/><path d="M 1330.8 899.9 q 36.9 -22 73.8 0 t 49.2 0" stroke="#E8C089" stroke-width="7" fill="none" stroke-linecap="round" opacity="0.35"/><path d="M 1403.8 857.4 q 109.1 -22 218.1 0 t 145.4 0" stroke="#E8C089" stroke-width="7" fill="none" stroke-linecap="round" opacity="0.35"/><path d="M 1231 877.8 q 91.7 -22 183.5 0 t 122.3 0" stroke="#E8C089" stroke-width="7" fill="none" stroke-linecap="round" opacity="0.35"/><path d="M 246.9 868.1 q 92.4 -22 184.7 0 t 123.2 0" stroke="#E8C089" stroke-width="7" fill="none" stroke-linecap="round" opacity="0.35"/><path d="M 2.3 801.5 q 73.3 -22 146.6 0 t 97.7 0" stroke="#E8C089" stroke-width="7" fill="none" stroke-linecap="round" opacity="0.35"/><path d="M 1380.9 911.5 q 89.2 -22 178.4 0 t 118.9 0" stroke="#E8C089" stroke-width="7" fill="none" stroke-linecap="round" opacity="0.35"/><path d="M 1258.1 908.1 q 81.4 -22 162.8 0 t 108.5 0" stroke="#E8C089" stroke-width="7" fill="none" stroke-linecap="round" opacity="0.35"/><path d="M 113.5 868.9 q 77.4 -22 154.8 0 t 103.2 0" stroke="#E8C089" stroke-width="7" fill="none" stroke-linecap="round" opacity="0.35"/><path d="M 1341.6 876.4 q 72.2 -22 144.4 0 t 96.3 0" stroke="#E8C089" stroke-width="7" fill="none" stroke-linecap="round" opacity="0.35"/><path d="M 794.8 905.6 q 96.5 -22 193.1 0 t 128.7 0" stroke="#E8C089" stroke-width="7" fill="none" stroke-linecap="round" opacity="0.35"/><path d="M 1368.7 923 q 65 -22 130.1 0 t 86.7 0" stroke="#E8C089" stroke-width="7" fill="none" stroke-linecap="round" opacity="0.35"/><path d="M 1102.3 929.5 q 72.4 -22 144.7 0 t 96.5 0" stroke="#E8C089" stroke-width="7" fill="none" stroke-linecap="round" opacity="0.35"/><path d="M 1566.1 962.9 q 91.6 -22 183.2 0 t 122.1 0" stroke="#E8C089" stroke-width="7" fill="none" stroke-linecap="round" opacity="0.35"/><path d="M 1083.4 976.2 q 95.7 -22 191.4 0 t 127.6 0" stroke="#E8C089" stroke-width="7" fill="none" stroke-linecap="round" opacity="0.35"/><path d="M 91 812.2 q 77.9 -22 155.9 0 t 103.9 0" stroke="#E8C089" stroke-width="7" fill="none" stroke-linecap="round" opacity="0.35"/><path d="M 1384.8 863.8 q 78.1 -22 156.3 0 t 104.2 0" stroke="#E8C089" stroke-width="7" fill="none" stroke-linecap="round" opacity="0.35"/><path d="M 463.9 885.7 q 79.1 -22 158.1 0 t 105.4 0" stroke="#E8C089" stroke-width="7" fill="none" stroke-linecap="round" opacity="0.35"/><g transform="translate(700 985) scale(1.2)"><rect x="-150" y="-330" width="18" height="300" fill="#3B2A1E"/><rect x="132" y="-330" width="18" height="300" fill="#3B2A1E"/><rect x="-170" y="-350" width="340" height="22" rx="8" fill="#6E4629"/><rect x="-24" y="-372" width="48" height="26" rx="8" fill="#3B2A1E"/><path d="M -170 -60 Q -170 -110 0 -110 Q 170 -110 170 -60 V 0 Q 0 40 -170 0 Z" fill="#8A7F70"/><g stroke="#5E564C" stroke-width="5" opacity="0.6"><path d="M -150 -40 H 150"/><path d="M -168 -10 H 168"/><path d="M -100 -60 V -10 M -30 -40 V 0 M 40 -60 V -10 M 110 -40 V 0"/></g><ellipse cx="0" cy="-110" rx="170" ry="40" fill="#B5AA98"/><ellipse cx="0" cy="-110" rx="130" ry="26" fill="#0B0D18"/></g><path d="M 1030 976 q 27 -14 72 -8.4 q 54 -4.2 108 5.6000000000000005 q -36 12.6 -99.00000000000001 11.200000000000001 q -81 -1.4000000000000001 -81 -8.4 Z" fill="#7A5A3A" opacity="0.7"/><g transform="translate(1180 985) scale(-0.9 0.9)"><path d="M -70 -60 V 0 M -30 -60 V 0 M 30 -60 V 0 M 70 -60 V 0" stroke="#8A5A36" stroke-width="18" stroke-linecap="round"/><ellipse cx="0" cy="-90" rx="110" ry="44" fill="#8A5A36"/><path d="M -110 -100 q -40 -30 -30 -80" stroke="#8A5A36" stroke-width="12" fill="none" stroke-linecap="round"/><path d="M 90 -110 L 120 -120" stroke="#8A5A36" stroke-width="40" stroke-linecap="round"/><circle cx="130" cy="-130" r="36" fill="#8A5A36"/><ellipse cx="166" cy="-120" rx="26" ry="16" fill="#8A5A36"/><path d="M 138 -160 l 8 -34 l 18 30 Z" fill="#8A5A36"/><circle cx="140" cy="-138" r="4" fill="#F0E4C0"/><path d="M 174 -108 q 6 26 -6 34" stroke="#D9736A" stroke-width="10" fill="none" stroke-linecap="round"/></g><rect width="1600" height="1200" fill="url(#vg2)"/><circle cx="380" cy="560" r="55.199999999999996" fill="url(#gl3)"/><ellipse cx="380" cy="563.6" rx="6.6" ry="9.6" fill="#5A4A2A"/><circle cx="380" cy="568.4" r="7.199999999999999" fill="#FFF4C8"/><circle cx="380" cy="568.4" r="3.5999999999999996" fill="#FFFBEA"/><path d="M 375.2 557.6 q -14.399999999999999 -12 -7.199999999999999 -19.2 M 384.8 557.6 q 14.399999999999999 -12 7.199999999999999 -19.2" stroke="#FFF4C8" stroke-width="2.4" fill="none" opacity="0.8"/></svg>