<svg xmlns="http://www.w3.org/2000/svg" viewBox="0 0 1600 1200"><defs><linearGradient id="sky0" x1="0" y1="0" x2="0" y2="1"><stop offset="0" stop-color="#31547A"/><stop offset="0.6" stop-color="#7A9AA8"/><stop offset="1" stop-color="#E8C089"/></linearGradient><radialGradient id="gl1"><stop offset="0" stop-color="#E8B36A" stop-opacity="0.55"/><stop offset="0.5" stop-color="#E8B36A" stop-opacity="0.22000000000000003"/><stop offset="1" stop-color="#E8B36A" stop-opacity="0"/></radialGradient><radialGradient id="vg2" cx="0.5" cy="0.5" r="0.75"><stop offset="0.55" stop-color="#000" stop-opacity="0"/><stop offset="1" stop-color="#000" stop-opacity="0.14"/></radialGradient><radialGradient id="gl3"><stop offset="0" stop-color="#FFE9A8" stop-opacity="0.55"/><stop offset="0.5" stop-color="#FFE9A8" stop-opacity="0.22000000000000003"/><stop offset="1" stop-color="#FFE9A8" stop-opacity="0"/></radialGradient></defs><rect x="0" y="0" width="1600" height="1200" fill="url(#sky0)"/><circle cx="300" cy="220" r="224" fill="url(#gl1)"/><circle cx="300" cy="220" r="70" fill="#F5E7BE"/><g transform="translate(1250 985) scale(1.1)"><rect x="-240" y="-300" width="480" height="300" fill="#D3A26A"/><rect x="-260" y="-320" width="520" height="30" rx="8" fill="#B8864F"/><path d="M -60 0 v -150 q 60 -70 120 0 v 150 Z" fill="#3B2A1E"/><path d="M -190 -130 v -70 q 40 -50 80 0 v 70 Z" fill="#3A2A1E" opacity="0.55"/><path d="M 110 -130 v -70 q 40 -50 80 0 v 70 Z" fill="#3A2A1E" opacity="0.55"/></g><g transform="translate(260 985) scale(1)"><path d="M -14 0 Q 4 -90 -6 -170 L 16 -170 Q 18 -90 12 0 Z" fill="#16382C"/><g transform="translate(2 0)"><path d="M 0 -170 q 86 -56 160.5 21.9" stroke="#16382C" stroke-width="17" fill="none" stroke-linecap="round"/><path d="M 0 -170 q 32.6 -77.7 60.9 13" stroke="#16382C" stroke-width="17" fill="none" stroke-linecap="round"/><path d="M 0 -170 q -37.5 -76.9 -69.9 13.3" stroke="#16382C" stroke-width="17" fill="none" stroke-linecap="round"/><path d="M 0 -170 q -87.4 -54.1 -163.1 22.7" stroke="#16382C" stroke-width="17" fill="none" stroke-linecap="round"/><path d="M 0 -170 q 74.3 -26.8 138.7 33.9" stroke="#16382C" stroke-width="17" fill="none" stroke-linecap="round"/></g></g><rect x="0" y="985" width="1600" height="215" fill="#B0743B"/><g transform="translate(760 985) scale(1)"><ellipse cx="0" cy="-22" rx="160" ry="44" fill="#5E564C"/><rect x="-160" y="-60" width="320" height="38" fill="#5E564C"/><ellipse cx="0" cy="-60" rx="160" ry="44" fill="#8A7F70"/><ellipse cx="0" cy="-64" rx="34" ry="12" fill="#5E564C"/><path d="M 100 -74 l 34 -90" stroke="#3B2A1E" stroke-width="18" stroke-linecap="round"/><circle cx="-120" cy="-8" r="6" fill="#E8C089"/><circle cx="-90" cy="4" r="6" fill="#E8C089"/><circle cx="150" cy="-2" r="6" fill="#E8C089"/><circle cx="190" cy="8" r="6" fill="#E8C089"/><circle cx="60" cy="10" r="6" fill="#E8C089"/></g><g transform="translate(1100 985) scale(0.9)"><path d="M -70 0 Q -120 -90 -60 -170 Q -20 -220 60 -210 Q 110 -200 100 -120 Q 90 -50 60 0 Z" fill="#8A5A36"/><path d="M 40 -212 q 10 -30 40 -30" stroke="#3B2A1E" stroke-width="14" fill="none" stroke-linecap="round"/><path d="M -50 -60 q 40 -20 90 0" stroke="#6E4629" stroke-width="8" fill="none" opacity="0.6"/></g><g transform="translate(520 985) scale(1)" stroke="#E2C177" stroke-linecap="round" fill="none"><path d="M 0 0 V -160" stroke-width="6"/><path d="M 0 -150 q -22 -6 -30 -30 M 0 -150 q 22 -6 30 -30" stroke-width="7"/><path d="M 0 -130 q -22 -6 -30 -30 M 0 -130 q 22 -6 30 -30" stroke-width="7"/><path d="M 0 -110 q -22 -6 -30 -30 M 0 -110 q 22 -6 30 -30" stroke-width="7"/><path d="M 0 -90 q -22 -6 -30 -30 M 0 -90 q 22 -6 30 -30" stroke-width="7"/><path d="M 0 -70 q -22 -6 -30 -30 M 0 -70 q 22 -6 30 -30" stroke-width="7"/></g><g transform="translate(560 985) scale(0.9)" stroke="#E2C177" stroke-linecap="round" fill="none"><path d="M 0 0 V -160" stroke-width="6"/><path d="M 0 -150 q -22 -6 -30 -30 M 0 -150 q 22 -6 30 -30" stroke-width="7"/><path d="M 0 -130 q -22 -6 -30 -30 M 0 -130 q 22 -6 30 -30" stroke-width="7"/><path d="M 0 -110 q -22 -6 -30 -30 M 0 -110 q 22 -6 30 -30" stroke-width="7"/><path d="M 0 -90 q -22 -6 -30 -30 M 0 -90 q 22 -6 30 -30" stroke-width="7"/><path d="M 0 -70 q -22 -6 -30 -30 M 0 -70 q 22 -6 30 -30" stroke-width="7"/></g><rect width="1600" height="1200" fill="url(#vg2)"/><circle cx="1000" cy="520" r="55.199999999999996" fill="url(#gl3)"/><ellipse cx="1000" cy="523.6" rx="6.6" ry="9.6" fill="#5A4A2A"/><circle cx="1000" cy="528.4" r="7.199999999999999" fill="#FFF4C8"/><circle cx="1000" cy="528.4" r="3.5999999999999996" fill="#FFFBEA"/><path d="M 995.2 517.6 q -14.399999999999999 -12 -7.199999999999999 -19.2 M 1004.8 517.6 q 14.399999999999999 -12 7.199999999999999 -19.2" stroke="#FFF4C8" stroke-width="2.4" fill="none" opacity="0.8"/></svg>