<svg xmlns="http://www.w3.org/2000/svg" viewBox="0 0 1600 1200"><defs><linearGradient id="sky0" x1="0" y1="0" x2="0" y2="1"><stop offset="0" stop-color="#2F5A8C"/><stop offset="0.6" stop-color="#7FA6C0"/><stop offset="1" stop-color="#D9E2D2"/></linearGradient><radialGradient id="gl1"><stop offset="0" stop-color="#F5E7BE" stop-opacity="0.5"/><stop offset="0.5" stop-color="#F5E7BE" stop-opacity="0.2"/><stop offset="1" stop-color="#F5E7BE" stop-opacity="0"/></radialGradient><radialGradient id="gl2"><stop offset="0" stop-color="#FFE9A8" stop-opacity="0.55"/><stop offset="0.5" stop-color="#FFE9A8" stop-opacity="0.22000000000000003"/><stop offset="1" stop-color="#FFE9A8" stop-opacity="0"/></radialGradient><radialGradient id="vg3" cx="0.5" cy="0.5" r="0.75"><stop offset="0.55" stop-color="#000" stop-opacity="0"/><stop offset="1" stop-color="#000" stop-opacity="0.12"/></radialGradient></defs><rect x="0" y="0" width="1600" height="1200" fill="url(#sky0)"/><path d="M 800 -40 L 129.8 -804.8 L 181.8 -804.8 Z" fill="#F5E7BE" opacity="0.16"/><path d="M 800 -40 L 234.1 -895.4 L 330.1 -895.4 Z" fill="#F5E7BE" opacity="0.16"/><path d="M 800 -40 L 394.8 -965.3 L 446.8 -965.3 Z" fill="#F5E7BE" opacity="0.16"/><path d="M 800 -40 L 520.8 -1012.9 L 616.8 -1012.9 Z" fill="#F5E7BE" opacity="0.16"/><path d="M 800 -40 L 696.3 -1037 L 748.3 -1037 Z" fill="#F5E7BE" opacity="0.16"/><path d="M 800 -40 L 829.7 -1037 L 925.7 -1037 Z" fill="#F5E7BE" opacity="0.16"/><path d="M 800 -40 L 1005.2 -1012.9 L 1057.2 -1012.9 Z" fill="#F5E7BE" opacity="0.16"/><path d="M 800 -40 L 1131.2 -965.3 L 1227.2 -965.3 Z" fill="#F5E7BE" opacity="0.16"/><path d="M 800 -40 L 1291.9 -895.4 L 1343.9 -895.4 Z" fill="#F5E7BE" opacity="0.16"/><path d="M 800 -40 L 1396.2 -804.8 L 1492.2 -804.8 Z" fill="#F5E7BE" opacity="0.16"/><circle cx="800" cy="320" r="380" fill="url(#gl1)"/><g opacity="0.7" fill="#F5E7BE"><ellipse cx="400" cy="460" rx="180" ry="50"/><ellipse cx="301" cy="477.5" rx="108" ry="37.5"/><ellipse cx="499" cy="475" rx="117" ry="35"/><ellipse cx="418" cy="435" rx="90" ry="35"/></g><g opacity="0.7" fill="#F5E7BE"><ellipse cx="1200" cy="400" rx="200" ry="56"/><ellipse cx="1090" cy="419.6" rx="120" ry="42"/><ellipse cx="1310" cy="416.8" rx="130" ry="39.199999999999996"/><ellipse cx="1220" cy="372" rx="100" ry="39.199999999999996"/></g><g opacity="0.75" fill="#F5E7BE"><ellipse cx="800" cy="560" rx="220" ry="60"/><ellipse cx="679" cy="581" rx="132" ry="45"/><ellipse cx="921" cy="578" rx="143" ry="42"/><ellipse cx="822" cy="530" rx="110" ry="42"/></g><path d="M0 900 Q 352 820 800 860 T 1600 844 V 1200 H 0 Z" fill="#7FA6C0" opacity="1"/><rect x="0" y="960" width="1600" height="240" fill="#5F8A5A"/><g transform="translate(800 300) scale(1.2 1.2)"><ellipse cx="0" cy="0" rx="34" ry="16" fill="#F0E4C0"/><path d="M -6 -6 q -20 -50 30 -60 q -10 30 6 50 Z" fill="#F0E4C0"/><circle cx="30" cy="-8" r="10" fill="#F0E4C0"/><path d="M 40 -8 l 12 3 l -12 4 Z" fill="#E2C177"/><path d="M -34 0 l -20 -8 l 4 14 Z" fill="#F0E4C0"/></g><g transform="translate(640 400) scale(0.8 0.8)"><ellipse cx="0" cy="0" rx="34" ry="16" fill="#F0E4C0"/><path d="M -6 -6 q -20 -50 30 -60 q -10 30 6 50 Z" fill="#F0E4C0"/><circle cx="30" cy="-8" r="10" fill="#F0E4C0"/><path d="M 40 -8 l 12 3 l -12 4 Z" fill="#E2C177"/><path d="M -34 0 l -20 -8 l 4 14 Z" fill="#F0E4C0"/></g><g transform="translate(980 420) scale(-0.8 0.8)"><ellipse cx="0" cy="0" rx="34" ry="16" fill="#F0E4C0"/><path d="M -6 -6 q -20 -50 30 -60 q -10 30 6 50 Z" fill="#F0E4C0"/><circle cx="30" cy="-8" r="10" fill="#F0E4C0"/><path d="M 40 -8 l 12 3 l -12 4 Z" fill="#E2C177"/><path d="M -34 0 l -20 -8 l 4 14 Z" fill="#F0E4C0"/></g><circle cx="500" cy="720" r="55.199999999999996" fill="url(#gl2)"/><ellipse cx="500" cy="723.6" rx="6.6" ry="9.6" fill="#5A4A2A"/><circle cx="500" cy="728.4" r="7.199999999999999" fill="#FFF4C8"/><circle cx="500" cy="728.4" r="3.5999999999999996" fill="#FFFBEA"/><path d="M 495.2 717.6 q -14.399999999999999 -12 -7.199999999999999 -19.2 M 504.8 717.6 q 14.399999999999999 -12 7.199999999999999 -19.2" stroke="#FFF4C8" stroke-width="2.4" fill="none" opacity="0.8"/><rect width="1600" height="1200" fill="url(#vg3)"/></svg>