<svg xmlns="http://www.w3.org/2000/svg" viewBox="0 0 1600 1200"><defs><linearGradient id="sky0" x1="0" y1="0" x2="0" y2="1"><stop offset="0" stop-color="#31547A"/><stop offset="0.6" stop-color="#7A9AA8"/><stop offset="1" stop-color="#E8C089"/></linearGradient><radialGradient id="gl1"><stop offset="0" stop-color="#E8B36A" stop-opacity="0.55"/><stop offset="0.5" stop-color="#E8B36A" stop-opacity="0.22000000000000003"/><stop offset="1" stop-color="#E8B36A" stop-opacity="0"/></radialGradient><mask id="cr2"><rect x="158.6607570708479" y="462.4320509538169" width="17.19652880882263" height="17.19652880882263" fill="black"/><circle cx="167.2590214752592" cy="471.0303153582282" r="6.614049541854858" fill="white"/><circle cx="170.30148426451242" cy="469.70750544985725" r="5.8203635968322756" fill="black"/></mask><radialGradient id="gl3"><stop offset="0" stop-color="#8A5348" stop-opacity="0.35"/><stop offset="0.5" stop-color="#8A5348" stop-opacity="0.13999999999999999"/><stop offset="1" stop-color="#8A5348" stop-opacity="0"/></radialGradient><mask id="cr4"><rect x="1341.6836292382236" y="447.2070686865118" width="12.423533715233804" height="12.423533715233804" fill="black"/><circle cx="1347.8953960958404" cy="453.4188355441287" r="4.778282198166847" fill="white"/><circle cx="1350.093405906997" cy="452.46317910449534" r="4.204888334386825" fill="black"/></mask><radialGradient id="gl5"><stop offset="0" stop-color="#8A5348" stop-opacity="0.35"/><stop offset="0.5" stop-color="#8A5348" stop-opacity="0.13999999999999999"/><stop offset="1" stop-color="#8A5348" stop-opacity="0"/></radialGradient><radialGradient id="gl6"><stop offset="0" stop-color="#E2C177" stop-opacity="0.35"/><stop offset="0.5" stop-color="#E2C177" stop-opacity="0.13999999999999999"/><stop offset="1" stop-color="#E2C177" stop-opacity="0"/></radialGradient><radialGradient id="vg7" cx="0.5" cy="0.5" r="0.75"><stop offset="0.55" stop-color="#000" stop-opacity="0"/><stop offset="1" stop-color="#000" stop-opacity="0.16"/></radialGradient><radialGradient id="gl8"><stop offset="0" stop-color="#FFE9A8" stop-opacity="0.55"/><stop offset="0.5" stop-color="#FFE9A8" stop-opacity="0.22000000000000003"/><stop offset="1" stop-color="#FFE9A8" stop-opacity="0"/></radialGradient></defs><rect x="0" y="0" width="1600" height="1200" fill="url(#sky0)"/><circle cx="280" cy="200" r="224" fill="url(#gl1)"/><circle cx="280" cy="200" r="70" fill="#F5E7BE"/><rect x="-40" y="550.5" width="135.5" height="169.5" fill="#8A5348"/><rect x="102.7" y="544.6" width="129.2" height="175.4" fill="#8A5348"/><path d="M 125.92121183866634 544.6116165113635 Q 125.92121183866634 497.07313542928176 167.2590214752592 490.87246398379284 Q 208.59683111185205 497.07313542928176 208.59683111185205 544.6116165113635 Z" fill="#8A5348"/><line x1="167.2590214752592" y1="490.87246398379284" x2="167.2590214752592" y2="477.6443649000831" stroke="#8A5348" stroke-width="3.7204028672933576"/><circle cx="167.2590214752592" cy="471.0303153582282" r="17.19652880882263" fill="url(#gl3)"/><rect x="158.6607570708479" y="462.4320509538169" width="17.19652880882263" height="17.19652880882263" fill="#8A5348" mask="url(#cr2)"/><rect x="239" y="570.5" width="190.6" height="149.5" fill="#8A5348"/><rect x="436.9" y="601.6" width="178.8" height="118.4" fill="#8A5348"/><rect x="622.9" y="571.7" width="158.3" height="148.3" fill="#8A5348"/><rect x="788.4" y="598.1" width="196.4" height="121.9" fill="#8A5348"/><rect x="992" y="628.8" width="184.7" height="91.2" fill="#8A5348"/><rect x="1183.9" y="530.2" width="110.1" height="189.8" fill="#8A5348"/><rect x="1301.2" y="506.6" width="93.3" height="213.4" fill="#8A5348"/><path d="M 1318.0311323572976 506.5772249987349 Q 1318.0311323572976 472.2333216994107 1347.8953960958404 467.75368213862924 Q 1377.7596598343832 472.2333216994107 1377.7596598343832 506.5772249987349 Z" fill="#8A5348"/><line x1="1347.8953960958404" y1="467.75368213862924" x2="1347.8953960958404" y2="458.1971177422956" stroke="#8A5348" stroke-width="2.6877837364688517"/><circle cx="1347.8953960958404" cy="453.4188355441287" r="12.423533715233804" fill="url(#gl5)"/><rect x="1341.6836292382236" y="447.2070686865118" width="12.423533715233804" height="12.423533715233804" fill="#8A5348" mask="url(#cr4)"/><rect x="1401.8" y="510.5" width="194.2" height="209.5" fill="#8A5348"/><rect x="1603.1" y="573.1" width="104.1" height="146.9" fill="#8A5348"/><rect x="0" y="985" width="1600" height="215" fill="#B0743B"/><rect x="520" y="860" width="560" height="120" rx="14" fill="#6E4629"/><g transform="translate(800 800) scale(1.3)"><circle r="60" fill="#B98A3E"/><circle r="46" fill="none" stroke="#E2C177" stroke-width="8"/><circle r="12" fill="#E2C177"/></g><circle cx="800" cy="800" r="220" fill="url(#gl6)"/><g transform="translate(1180 940) scale(0.8)"><path d="M -120 -20 Q -110 70 0 76 Q 110 70 120 -20 Z" fill="#8A5A36"/><path d="M -104 0 Q -96 56 0 60 Q 96 56 104 0" stroke="#6E4629" stroke-width="6" fill="none" opacity="0.6"/><path d="M -112 20 Q -100 64 0 68 Q 100 64 112 20" stroke="#6E4629" stroke-width="6" fill="none" opacity="0.5"/><ellipse cx="0" cy="-20" rx="120" ry="30" fill="#6E4629"/><path d="M -90 -24 Q 0 -70 90 -24 Q 0 6 -90 -24 Z" fill="#F0E4C0"/><path d="M -50 -34 Q 0 -60 50 -34" stroke="#4A5D8A" stroke-width="10" fill="none" stroke-linecap="round" opacity="0.7"/></g><circle cx="1150" cy="900" r="21.599999999999998" fill="#B8683C"/><path d="M 1150 878.4 q 10 -18 22 -12" stroke="#3F7A5E" stroke-width="6" fill="none" stroke-linecap="round"/><g transform="translate(360 985) scale(0.9)"><path d="M -50 0 Q -70 -90 -40 -140 Q -20 -160 -24 -180 H 24 Q 20 -160 40 -140 Q 70 -90 50 0 Z" fill="#8A4A28"/><ellipse cx="0" cy="-180" rx="26" ry="8" fill="#3B2A1E"/></g><rect width="1600" height="1200" fill="url(#vg7)"/><circle cx="1300" cy="560" r="55.199999999999996" fill="url(#gl8)"/><ellipse cx="1300" cy="563.6" rx="6.6" ry="9.6" fill="#5A4A2A"/><circle cx="1300" cy="568.4" r="7.199999999999999" fill="#FFF4C8"/><circle cx="1300" cy="568.4" r="3.5999999999999996" fill="#FFFBEA"/><path d="M 1295.2 557.6 q -14.399999999999999 -12 -7.199999999999999 -19.2 M 1304.8 557.6 q 14.399999999999999 -12 7.199999999999999 -19.2" stroke="#FFF4C8" stroke-width="2.4" fill="none" opacity="0.8"/></svg>