<svg xmlns="http://www.w3.org/2000/svg" viewBox="0 0 1600 1200"><defs><linearGradient id="sky0" x1="0" y1="0" x2="0" y2="1"><stop offset="0" stop-color="#2C2347"/><stop offset="0.6" stop-color="#4A3560"/><stop offset="1" stop-color="#8A5348"/></linearGradient><mask id="cr1"><rect x="222" y="142" width="156" height="156" fill="black"/><circle cx="300" cy="220" r="60" fill="white"/><circle cx="327.6" cy="208" r="52.8" fill="black"/></mask><radialGradient id="gl2"><stop offset="0" stop-color="#F0E4C0" stop-opacity="0.35"/><stop offset="0.5" stop-color="#F0E4C0" stop-opacity="0.13999999999999999"/><stop offset="1" stop-color="#F0E4C0" stop-opacity="0"/></radialGradient><radialGradient id="gl3"><stop offset="0" stop-color="#FFE9A8" stop-opacity="0.55"/><stop offset="0.5" stop-color="#FFE9A8" stop-opacity="0.22000000000000003"/><stop offset="1" stop-color="#FFE9A8" stop-opacity="0"/></radialGradient><radialGradient id="vg4" cx="0.5" cy="0.5" r="0.75"><stop offset="0.55" stop-color="#000" stop-opacity="0"/><stop offset="1" stop-color="#000" stop-opacity="0.2"/></radialGradient></defs><rect x="0" y="0" width="1600" height="1200" fill="url(#sky0)"/><circle cx="1103.6" cy="309.1" r="2" fill="#F0E4C0" opacity="0.7"/><circle cx="136.2" cy="236.9" r="3.3" fill="#F0E4C0" opacity="0.6"/><circle cx="1449" cy="91.8" r="3.4" fill="#F0E4C0" opacity="0.8"/><circle cx="1056.9" cy="5.5" r="2.6" fill="#F0E4C0" opacity="0.5"/><circle cx="1434.5" cy="115.2" r="3.4" fill="#F0E4C0" opacity="0.7"/><circle cx="405.7" cy="7.6" r="3.5" fill="#F0E4C0" opacity="0.5"/><circle cx="436.2" cy="49.3" r="2.6" fill="#F0E4C0" opacity="0.9"/><circle cx="392.8" cy="32.4" r="3.6" fill="#F0E4C0" opacity="0.5"/><circle cx="652.1" cy="394.3" r="2.1" fill="#F0E4C0" opacity="0.6"/><circle cx="347.6" cy="347.7" r="3.3" fill="#F0E4C0" opacity="0.8"/><circle cx="818.5" cy="322" r="3.1" fill="#F0E4C0" opacity="0.4"/><circle cx="1017.7" cy="231" r="2.2" fill="#F0E4C0" opacity="0.8"/><circle cx="975.1" cy="3.3" r="3.8" fill="#F0E4C0" opacity="0.5"/><circle cx="560.2" cy="349.8" r="2" fill="#F0E4C0" opacity="0.4"/><circle cx="1333.9" cy="111.6" r="4" fill="#F0E4C0" opacity="0.4"/><circle cx="561.7" cy="303.4" r="2.2" fill="#F0E4C0" opacity="0.7"/><circle cx="122.8" cy="32" r="3.3" fill="#F0E4C0" opacity="0.6"/><circle cx="405.5" cy="372" r="1.5" fill="#F0E4C0" opacity="0.8"/><circle cx="1526.2" cy="114.1" r="2.8" fill="#F0E4C0" opacity="0.8"/><circle cx="1354.9" cy="231.6" r="3.9" fill="#F0E4C0" opacity="0.7"/><circle cx="864.3" cy="44" r="2.2" fill="#F0E4C0" opacity="0.6"/><circle cx="248" cy="100.8" r="3.4" fill="#F0E4C0" opacity="0.4"/><circle cx="128.1" cy="130.7" r="3.5" fill="#F0E4C0" opacity="0.7"/><circle cx="660.1" cy="39" r="2.2" fill="#F0E4C0" opacity="0.9"/><circle cx="522.3" cy="281.1" r="3.3" fill="#F0E4C0" opacity="0.4"/><circle cx="1253.6" cy="372.7" r="3" fill="#F0E4C0" opacity="0.4"/><circle cx="578.9" cy="161.2" r="1.5" fill="#F0E4C0" opacity="0.6"/><circle cx="1468.5" cy="124.5" r="3.4" fill="#F0E4C0" opacity="0.4"/><circle cx="1306.3" cy="40.3" r="2.7" fill="#F0E4C0" opacity="0.8"/><circle cx="335.6" cy="238.6" r="1.7" fill="#F0E4C0" opacity="0.6"/><circle cx="300" cy="220" r="156" fill="url(#gl2)"/><rect x="222" y="142" width="156" height="156" fill="#F0E4C0" mask="url(#cr1)"/><path d="M0 760 L 0 760 L 400 600 L 800 700 L 1200 560 L 1600 680 L 1600 760 V 1200 H 0 Z" fill="#4A3560" opacity="0.7"/><path d="M0 840 Q 480 750 992 830 T 1600 790 V 1200 H 0 Z" fill="#8A5348"/><path d="M0 930 Q 640 850 1248 920 T 1600 900 V 1200 H 0 Z" fill="#6E4038"/><g transform="translate(560 930) scale(0.9 0.9)"><ellipse cx="0" cy="-90" rx="90" ry="44" fill="#2C2347"/><ellipse cx="0" cy="-130" rx="46" ry="34" fill="#2C2347"/><path d="M 70 -110 q 60 -10 70 -90 q 6 -30 40 -30 q 30 0 36 30 l -30 10 q -14 6 -26 -6 l -6 40 q -10 50 -60 60 Z" fill="#2C2347"/><path d="M -70 -60 l -10 62 h 18 l 6 -50 M -20 -56 l -4 58 h 18 l 2 -50 M 30 -58 l -2 60 h 18 l 0 -52 M 66 -70 l 4 72 h 18 l -6 -64" stroke="#2C2347" stroke-width="10" stroke-linecap="round" fill="none"/><path d="M -90 -100 q -30 20 -20 50" stroke="#2C2347" stroke-width="10" stroke-linecap="round" fill="none"/></g><g transform="translate(820 940) scale(0.9 0.9)"><ellipse cx="0" cy="-90" rx="90" ry="44" fill="#2C2347"/><ellipse cx="0" cy="-130" rx="46" ry="34" fill="#2C2347"/><path d="M 70 -110 q 60 -10 70 -90 q 6 -30 40 -30 q 30 0 36 30 l -30 10 q -14 6 -26 -6 l -6 40 q -10 50 -60 60 Z" fill="#2C2347"/><path d="M -70 -60 l -10 62 h 18 l 6 -50 M -20 -56 l -4 58 h 18 l 2 -50 M 30 -58 l -2 60 h 18 l 0 -52 M 66 -70 l 4 72 h 18 l -6 -64" stroke="#2C2347" stroke-width="10" stroke-linecap="round" fill="none"/><path d="M -90 -100 q -30 20 -20 50" stroke="#2C2347" stroke-width="10" stroke-linecap="round" fill="none"/></g><g transform="translate(1080 930) scale(0.9 0.9)"><ellipse cx="0" cy="-90" rx="90" ry="44" fill="#2C2347"/><ellipse cx="0" cy="-130" rx="46" ry="34" fill="#2C2347"/><path d="M 70 -110 q 60 -10 70 -90 q 6 -30 40 -30 q 30 0 36 30 l -30 10 q -14 6 -26 -6 l -6 40 q -10 50 -60 60 Z" fill="#2C2347"/><path d="M -70 -60 l -10 62 h 18 l 6 -50 M -20 -56 l -4 58 h 18 l 2 -50 M 30 -58 l -2 60 h 18 l 0 -52 M 66 -70 l 4 72 h 18 l -6 -64" stroke="#2C2347" stroke-width="10" stroke-linecap="round" fill="none"/><path d="M -90 -100 q -30 20 -20 50" stroke="#2C2347" stroke-width="10" stroke-linecap="round" fill="none"/></g><g transform="translate(700 930) scale(0.6)"><path d="M -70 0 Q -80 -110 -40 -140 L -30 -170 H 30 L 40 -140 Q 80 -110 70 0 Z" fill="#B0743B"/><path d="M -34 -150 H 34" stroke="#3B2A1E" stroke-width="8" stroke-linecap="round"/><path d="M -50 -60 q 50 20 100 0" stroke="#3B2A1E" stroke-width="4" fill="none" opacity="0.4"/></g><g transform="translate(960 940) scale(0.6)"><path d="M -70 0 Q -80 -110 -40 -140 L -30 -170 H 30 L 40 -140 Q 80 -110 70 0 Z" fill="#B0743B"/><path d="M -34 -150 H 34" stroke="#3B2A1E" stroke-width="8" stroke-linecap="round"/><path d="M -50 -60 q 50 20 100 0" stroke="#3B2A1E" stroke-width="4" fill="none" opacity="0.4"/></g><circle cx="1300" cy="700" r="55.199999999999996" fill="url(#gl3)"/><ellipse cx="1300" cy="703.6" rx="6.6" ry="9.6" fill="#5A4A2A"/><circle cx="1300" cy="708.4" r="7.199999999999999" fill="#FFF4C8"/><circle cx="1300" cy="708.4" r="3.5999999999999996" fill="#FFFBEA"/><path d="M 1295.2 697.6 q -14.399999999999999 -12 -7.199999999999999 -19.2 M 1304.8 697.6 q 14.399999999999999 -12 7.199999999999999 -19.2" stroke="#FFF4C8" stroke-width="2.4" fill="none" opacity="0.8"/><rect width="1600" height="1200" fill="url(#vg4)"/></svg>