<svg xmlns="http://www.w3.org/2000/svg" viewBox="0 0 1600 1200"><defs><linearGradient id="sky0" x1="0" y1="0" x2="0" y2="1"><stop offset="0" stop-color="#4A5D8A"/><stop offset="0.55" stop-color="#B0743B"/><stop offset="1" stop-color="#E8B36A"/></linearGradient><radialGradient id="gl1"><stop offset="0" stop-color="#E8B36A" stop-opacity="0.55"/><stop offset="0.5" stop-color="#E8B36A" stop-opacity="0.22000000000000003"/><stop offset="1" stop-color="#E8B36A" stop-opacity="0"/></radialGradient><radialGradient id="gl2"><stop offset="0" stop-color="#F5E7BE" stop-opacity="0.3"/><stop offset="0.5" stop-color="#F5E7BE" stop-opacity="0.12"/><stop offset="1" stop-color="#F5E7BE" stop-opacity="0"/></radialGradient><radialGradient id="gl3"><stop offset="0" stop-color="#FFE9A8" stop-opacity="0.55"/><stop offset="0.5" stop-color="#FFE9A8" stop-opacity="0.22000000000000003"/><stop offset="1" stop-color="#FFE9A8" stop-opacity="0"/></radialGradient><radialGradient id="vg4" cx="0.5" cy="0.5" r="0.75"><stop offset="0.55" stop-color="#000" stop-opacity="0"/><stop offset="1" stop-color="#000" stop-opacity="0.16"/></radialGradient></defs><rect x="0" y="0" width="1600" height="1200" fill="url(#sky0)"/><circle cx="1200" cy="300" r="256" fill="url(#gl1)"/><circle cx="1200" cy="300" r="80" fill="#F5E7BE"/><g opacity="0.5" fill="#F5E7BE"><ellipse cx="400" cy="240" rx="150" ry="44"/><ellipse cx="317.5" cy="255.4" rx="90" ry="33"/><ellipse cx="482.5" cy="253.2" rx="97.5" ry="30.799999999999997"/><ellipse cx="415" cy="218" rx="75" ry="30.799999999999997"/></g><g transform="translate(200 760) scale(1.2)"><path d="M -14 0 Q 4 -90 -6 -170 L 16 -170 Q 18 -90 12 0 Z" fill="#16382C"/><g transform="translate(2 0)"><path d="M 0 -170 q 86 -56 160.5 21.9" stroke="#16382C" stroke-width="17" fill="none" stroke-linecap="round"/><path d="M 0 -170 q 32.6 -77.7 60.9 13" stroke="#16382C" stroke-width="17" fill="none" stroke-linecap="round"/><path d="M 0 -170 q -37.5 -76.9 -69.9 13.3" stroke="#16382C" stroke-width="17" fill="none" stroke-linecap="round"/><path d="M 0 -170 q -87.4 -54.1 -163.1 22.7" stroke="#16382C" stroke-width="17" fill="none" stroke-linecap="round"/><path d="M 0 -170 q 74.3 -26.8 138.7 33.9" stroke="#16382C" stroke-width="17" fill="none" stroke-linecap="round"/></g></g><g transform="translate(1400 740) scale(1.3)"><path d="M -14 0 Q 4 -90 -6 -170 L 16 -170 Q 18 -90 12 0 Z" fill="#16382C"/><g transform="translate(2 0)"><path d="M 0 -170 q 86 -56 160.5 21.9" stroke="#16382C" stroke-width="17" fill="none" stroke-linecap="round"/><path d="M 0 -170 q 32.6 -77.7 60.9 13" stroke="#16382C" stroke-width="17" fill="none" stroke-linecap="round"/><path d="M 0 -170 q -37.5 -76.9 -69.9 13.3" stroke="#16382C" stroke-width="17" fill="none" stroke-linecap="round"/><path d="M 0 -170 q -87.4 -54.1 -163.1 22.7" stroke="#16382C" stroke-width="17" fill="none" stroke-linecap="round"/><path d="M 0 -170 q 74.3 -26.8 138.7 33.9" stroke="#16382C" stroke-width="17" fill="none" stroke-linecap="round"/></g></g><path d="M0 780 Q 352 740 800 760 T 1600 752 V 1200 H 0 Z" fill="#6E4629" opacity="1"/><path d="M0 800 Q 400 770 800 800 T 1600 800 V 1200 H 0 Z" fill="#4F7C9A"/><path d="M0 920 Q 480 890 880.0000000000001 920 T 1600 910 V 1200 H 0 Z" fill="#1E4B6E"/><path d="M 160 860 q 80 -14 160 0 M 880.0000000000001 840 q 90 -14 180 0 M 480 970 q 70 -12 140 0" stroke="#A9C4CF" stroke-width="6" fill="none" opacity="0.5" stroke-linecap="round"/><path d="M 308.4 900 Q 303.2 765 295.5 675" stroke="#16382C" stroke-width="9" fill="none" stroke-linecap="round"/><ellipse cx="295.5" cy="675" rx="9" ry="26" fill="#6E4629"/><path d="M 225.9 900 Q 229.1 699 233.8 564.9" stroke="#16382C" stroke-width="9" fill="none" stroke-linecap="round"/><ellipse cx="233.8" cy="564.9" rx="9" ry="26" fill="#6E4629"/><path d="M 209.7 900 Q 216.4 761.1 226.6 668.6" stroke="#16382C" stroke-width="9" fill="none" stroke-linecap="round"/><ellipse cx="226.6" cy="668.6" rx="9" ry="26" fill="#6E4629"/><path d="M 47.9 900 Q 40.7 709.7 30 582.8" stroke="#16382C" stroke-width="9" fill="none" stroke-linecap="round"/><ellipse cx="30" cy="582.8" rx="9" ry="26" fill="#6E4629"/><path d="M 178.2 900 Q 180.1 703.8 183.1 573" stroke="#16382C" stroke-width="9" fill="none" stroke-linecap="round"/><ellipse cx="183.1" cy="573" rx="9" ry="26" fill="#6E4629"/><path d="M 59.2 900 Q 56 723.3 51.2 605.6" stroke="#16382C" stroke-width="9" fill="none" stroke-linecap="round"/><ellipse cx="51.2" cy="605.6" rx="9" ry="26" fill="#6E4629"/><path d="M 408.1 900 Q 418 799.3 433 732.2" stroke="#16382C" stroke-width="9" fill="none" stroke-linecap="round"/><ellipse cx="433" cy="732.2" rx="9" ry="26" fill="#6E4629"/><path d="M 26.1 900 Q 18.7 788.6 7.6 714.4" stroke="#16382C" stroke-width="9" fill="none" stroke-linecap="round"/><ellipse cx="7.6" cy="714.4" rx="9" ry="26" fill="#6E4629"/><path d="M 3 900 Q 1.8 691.2 0.1 552" stroke="#16382C" stroke-width="9" fill="none" stroke-linecap="round"/><ellipse cx="0.1" cy="552" rx="9" ry="26" fill="#6E4629"/><path d="M 266.6 900 Q 260.1 685.4 250.5 542.3" stroke="#16382C" stroke-width="9" fill="none" stroke-linecap="round"/><ellipse cx="250.5" cy="542.3" rx="9" ry="26" fill="#6E4629"/><path d="M 196.5 900 Q 185.8 762.2 169.7 670.4" stroke="#16382C" stroke-width="9" fill="none" stroke-linecap="round"/><ellipse cx="169.7" cy="670.4" rx="9" ry="26" fill="#6E4629"/><path d="M 218.9 900 Q 208.3 792.6 192.4 720.9" stroke="#16382C" stroke-width="9" fill="none" stroke-linecap="round"/><ellipse cx="192.4" cy="720.9" rx="9" ry="26" fill="#6E4629"/><path d="M 403.3 900 Q 391.3 707.4 373.4 579" stroke="#16382C" stroke-width="9" fill="none" stroke-linecap="round"/><ellipse cx="373.4" cy="579" rx="9" ry="26" fill="#6E4629"/><path d="M 412.5 900 Q 423.8 795.3 440.8 725.5" stroke="#16382C" stroke-width="9" fill="none" stroke-linecap="round"/><ellipse cx="440.8" cy="725.5" rx="9" ry="26" fill="#6E4629"/><path d="M 1410.3 920 Q 1414.2 823.7 1420.1 759.5" stroke="#16382C" stroke-width="9" fill="none" stroke-linecap="round"/><ellipse cx="1420.1" cy="759.5" rx="9" ry="26" fill="#6E4629"/><path d="M 1280.9 920 Q 1270.6 758.9 1255.1 651.6" stroke="#16382C" stroke-width="9" fill="none" stroke-linecap="round"/><ellipse cx="1255.1" cy="651.6" rx="9" ry="26" fill="#6E4629"/><path d="M 1201.8 920 Q 1213.1 713.5 1230 575.8" stroke="#16382C" stroke-width="9" fill="none" stroke-linecap="round"/><ellipse cx="1230" cy="575.8" rx="9" ry="26" fill="#6E4629"/><path d="M 1284 920 Q 1281.2 711.9 1277 573.2" stroke="#16382C" stroke-width="9" fill="none" stroke-linecap="round"/><ellipse cx="1277" cy="573.2" rx="9" ry="26" fill="#6E4629"/><path d="M 1208.9 920 Q 1207.8 817.8 1206.1 749.7" stroke="#16382C" stroke-width="9" fill="none" stroke-linecap="round"/><ellipse cx="1206.1" cy="749.7" rx="9" ry="26" fill="#6E4629"/><path d="M 1513.7 920 Q 1513.2 748.2 1512.6 633.7" stroke="#16382C" stroke-width="9" fill="none" stroke-linecap="round"/><ellipse cx="1512.6" cy="633.7" rx="9" ry="26" fill="#6E4629"/><path d="M 1362.7 920 Q 1374.4 800.1 1391.9 720.2" stroke="#16382C" stroke-width="9" fill="none" stroke-linecap="round"/><ellipse cx="1391.9" cy="720.2" rx="9" ry="26" fill="#6E4629"/><path d="M 1578.1 920 Q 1588.7 791.7 1604.7 706.2" stroke="#16382C" stroke-width="9" fill="none" stroke-linecap="round"/><ellipse cx="1604.7" cy="706.2" rx="9" ry="26" fill="#6E4629"/><path d="M 1541.4 920 Q 1546.1 705.9 1553.3 563.2" stroke="#16382C" stroke-width="9" fill="none" stroke-linecap="round"/><ellipse cx="1553.3" cy="563.2" rx="9" ry="26" fill="#6E4629"/><path d="M 1577.8 920 Q 1588.4 708.6 1604.4 567.7" stroke="#16382C" stroke-width="9" fill="none" stroke-linecap="round"/><ellipse cx="1604.4" cy="567.7" rx="9" ry="26" fill="#6E4629"/><path d="M 1287.3 920 Q 1280.2 757.7 1269.6 649.5" stroke="#16382C" stroke-width="9" fill="none" stroke-linecap="round"/><ellipse cx="1269.6" cy="649.5" rx="9" ry="26" fill="#6E4629"/><path d="M 1316.7 920 Q 1324.7 798.4 1336.6 717.4" stroke="#16382C" stroke-width="9" fill="none" stroke-linecap="round"/><ellipse cx="1336.6" cy="717.4" rx="9" ry="26" fill="#6E4629"/><g transform="translate(800 880) scale(1)"><path d="M -120 -20 Q -110 70 0 76 Q 110 70 120 -20 Z" fill="#8A5A36"/><path d="M -104 0 Q -96 56 0 60 Q 96 56 104 0" stroke="#6E4629" stroke-width="6" fill="none" opacity="0.6"/><path d="M -112 20 Q -100 64 0 68 Q 100 64 112 20" stroke="#6E4629" stroke-width="6" fill="none" opacity="0.5"/><ellipse cx="0" cy="-20" rx="120" ry="30" fill="#6E4629"/><path d="M -90 -24 Q 0 -70 90 -24 Q 0 6 -90 -24 Z" fill="#F0E4C0"/><path d="M -50 -34 Q 0 -60 50 -34" stroke="#4A5D8A" stroke-width="10" fill="none" stroke-linecap="round" opacity="0.7"/></g><circle cx="800" cy="860" r="220" fill="url(#gl2)"/><circle cx="1000" cy="640" r="55.199999999999996" fill="url(#gl3)"/><ellipse cx="1000" cy="643.6" rx="6.6" ry="9.6" fill="#5A4A2A"/><circle cx="1000" cy="648.4" r="7.199999999999999" fill="#FFF4C8"/><circle cx="1000" cy="648.4" r="3.5999999999999996" fill="#FFFBEA"/><path d="M 995.2 637.6 q -14.399999999999999 -12 -7.199999999999999 -19.2 M 1004.8 637.6 q 14.399999999999999 -12 7.199999999999999 -19.2" stroke="#FFF4C8" stroke-width="2.4" fill="none" opacity="0.8"/><rect width="1600" height="1200" fill="url(#vg4)"/></svg>