<svg xmlns="http://www.w3.org/2000/svg" viewBox="0 0 1600 1200"><defs><linearGradient id="sky0" x1="0" y1="0" x2="0" y2="1"><stop offset="0" stop-color="#1F2530"/><stop offset="0.5" stop-color="#3E4A5E"/><stop offset="1" stop-color="#6C7A8C"/></linearGradient><radialGradient id="gl1"><stop offset="0" stop-color="#F0E4C0" stop-opacity="0.14"/><stop offset="0.5" stop-color="#F0E4C0" stop-opacity="0.05600000000000001"/><stop offset="1" stop-color="#F0E4C0" stop-opacity="0"/></radialGradient><mask id="cr2"><rect x="396.1728161337309" y="567.8849959145111" width="25.38536733854771" height="25.38536733854771" fill="black"/><circle cx="408.86549980300475" cy="580.577679583785" r="9.763602822518349" fill="white"/><circle cx="413.3567571013632" cy="578.6249590192813" r="8.591970483816148" fill="black"/></mask><radialGradient id="gl3"><stop offset="0" stop-color="#3E2619" stop-opacity="0.35"/><stop offset="0.5" stop-color="#3E2619" stop-opacity="0.13999999999999999"/><stop offset="1" stop-color="#3E2619" stop-opacity="0"/></radialGradient><radialGradient id="vg4" cx="0.5" cy="0.5" r="0.75"><stop offset="0.55" stop-color="#000" stop-opacity="0"/><stop offset="1" stop-color="#000" stop-opacity="0.3"/></radialGradient><radialGradient id="gl5"><stop offset="0" stop-color="#FFE9A8" stop-opacity="0.55"/><stop offset="0.5" stop-color="#FFE9A8" stop-opacity="0.22000000000000003"/><stop offset="1" stop-color="#FFE9A8" stop-opacity="0"/></radialGradient></defs><rect x="0" y="0" width="1600" height="1200" fill="url(#sky0)"/><g opacity="0.9" fill="#2B3140"><ellipse cx="800" cy="300" rx="700" ry="180"/><ellipse cx="414.99999999999994" cy="363" rx="420" ry="135"/><ellipse cx="1185" cy="354" rx="455" ry="125.99999999999999"/><ellipse cx="870" cy="210" rx="350" ry="125.99999999999999"/></g><g opacity="0.8" fill="#3E4A5E"><ellipse cx="1010" cy="372" rx="560" ry="144"/><ellipse cx="702" cy="422.4" rx="336" ry="108"/><ellipse cx="1318" cy="415.2" rx="364" ry="100.8"/><ellipse cx="1066" cy="300" rx="280" ry="100.8"/></g><g opacity="0.9" fill="#2B3140"><ellipse cx="300" cy="420" rx="400" ry="110"/><ellipse cx="79.99999999999997" cy="458.5" rx="240" ry="82.5"/><ellipse cx="520" cy="453" rx="260" ry="77"/><ellipse cx="340" cy="365" rx="200" ry="77"/></g><g opacity="0.8" fill="#3E4A5E"><ellipse cx="420" cy="464" rx="320" ry="88"/><ellipse cx="244" cy="494.8" rx="192" ry="66"/><ellipse cx="596" cy="490.4" rx="208" ry="61.599999999999994"/><ellipse cx="452" cy="420" rx="160" ry="61.599999999999994"/></g><g opacity="0.9" fill="#2B3140"><ellipse cx="1350" cy="400" rx="380" ry="100"/><ellipse cx="1141" cy="435" rx="228" ry="75"/><ellipse cx="1559" cy="430" rx="247" ry="70"/><ellipse cx="1388" cy="350" rx="190" ry="70"/></g><g opacity="0.8" fill="#3E4A5E"><ellipse cx="1464" cy="440" rx="304" ry="80"/><ellipse cx="1296.8" cy="468" rx="182.4" ry="60"/><ellipse cx="1631.2" cy="464" rx="197.6" ry="56"/><ellipse cx="1494.4" cy="400" rx="152" ry="56"/></g><circle cx="800" cy="640" r="500" fill="url(#gl1)"/><rect x="-40" y="747.7" width="152.4" height="152.3" fill="#3E2619"/><rect x="119.6" y="811.7" width="87.1" height="88.3" fill="#3E2619"/><rect x="213.8" y="748.9" width="92.5" height="151.1" fill="#3E2619"/><rect x="313.5" y="689.2" width="190.7" height="210.8" fill="#3E2619"/><path d="M 347.84298216226506 689.1977609843016 Q 347.84298216226506 619.021865697451 408.86549980300475 609.86848805134 Q 469.88801744374445 619.021865697451 469.88801744374445 689.1977609843016 Z" fill="#3E2619"/><line x1="408.86549980300475" y1="609.86848805134" x2="408.86549980300475" y2="590.3412824063033" stroke="#3E2619" stroke-width="5.492026587666571"/><circle cx="408.86549980300475" cy="580.577679583785" r="25.38536733854771" fill="url(#gl3)"/><rect x="396.1728161337309" y="567.8849959145111" width="25.38536733854771" height="25.38536733854771" fill="#3E2619" mask="url(#cr2)"/><rect x="511.4" y="786.1" width="117.7" height="113.9" fill="#3E2619"/><rect x="636.3" y="704.7" width="127" height="195.3" fill="#3E2619"/><rect x="770.5" y="691" width="96.5" height="209" fill="#3E2619"/><rect x="874.2" y="751.9" width="163.6" height="148.1" fill="#3E2619"/><rect x="1045" y="739.1" width="175" height="160.9" fill="#3E2619"/><rect x="1227.2" y="811" width="120.7" height="89" fill="#3E2619"/><rect x="1355.1" y="637.9" width="117.5" height="262.1" fill="#3E2619"/><rect x="1479.7" y="775.4" width="172.3" height="124.6" fill="#3E2619"/><rect x="0" y="985" width="1600" height="215" fill="#2E1A14"/><rect width="1600" height="1200" fill="url(#vg4)"/><circle cx="1300" cy="700" r="55.199999999999996" fill="url(#gl5)"/><ellipse cx="1300" cy="703.6" rx="6.6" ry="9.6" fill="#5A4A2A"/><circle cx="1300" cy="708.4" r="7.199999999999999" fill="#FFF4C8"/><circle cx="1300" cy="708.4" r="3.5999999999999996" fill="#FFFBEA"/><path d="M 1295.2 697.6 q -14.399999999999999 -12 -7.199999999999999 -19.2 M 1304.8 697.6 q 14.399999999999999 -12 7.199999999999999 -19.2" stroke="#FFF4C8" stroke-width="2.4" fill="none" opacity="0.8"/></svg>