<svg xmlns="http://www.w3.org/2000/svg" viewBox="0 0 1024 1024"><defs><linearGradient id="sky0" x1="0" y1="0" x2="0" y2="1"><stop offset="0" stop-color="#B0743B"/><stop offset="0.6" stop-color="#D19A56"/><stop offset="1" stop-color="#E8C089"/></linearGradient><radialGradient id="gl1"><stop offset="0" stop-color="#F5E7BE" stop-opacity="0.45"/><stop offset="0.55" stop-color="#F5E7BE" stop-opacity="0.18000000000000002"/><stop offset="1" stop-color="#F5E7BE" stop-opacity="0"/></radialGradient></defs><rect width="1024" height="1024" fill="url(#sky0)"/><defs><linearGradient id="sky3" x1="0" y1="0" x2="0" y2="1"><stop offset="0" stop-color="#121423"/><stop offset="0.55" stop-color="#1A1F33"/><stop offset="1" stop-color="#232A44"/></linearGradient><clipPath id="win4"><path d="M 367 336 V 221 A 145 145 0 0 1 657 221 V 336 Z"/></clipPath></defs><path d="M 349 354 V 221 A 163 163 0 0 1 675 221 V 354 Z" fill="#8A5A36"/><g clip-path="url(#win4)"><rect x="367" y="76" width="290" height="405" fill="url(#sky3)"/><circle cx="562" cy="257" r="3.5" fill="#F5E7BE" opacity="0.37"/><circle cx="493" cy="157" r="1.8" fill="#F5E7BE" opacity="0.82"/><circle cx="599" cy="221" r="2.4" fill="#F5E7BE" opacity="0.72"/><circle cx="535" cy="172" r="3.5" fill="#F5E7BE" opacity="0.37"/><circle cx="573" cy="241" r="3.8" fill="#F5E7BE" opacity="0.49"/><circle cx="618" cy="256" r="3.6" fill="#F5E7BE" opacity="0.75"/><circle cx="638" cy="220" r="3.3" fill="#F5E7BE" opacity="0.37"/><circle cx="427" cy="123" r="3.4" fill="#F5E7BE" opacity="0.49"/><defs><mask id="cr2"><rect x="514" y="138" width="104" height="104" fill="black"/><circle cx="566" cy="190" r="40" fill="white"/><circle cx="584.4" cy="182" r="35.2" fill="black"/></mask></defs><rect x="514" y="138" width="104" height="104" fill="#F0E4C0" mask="url(#cr2)"/></g><circle cx="512" cy="470" r="370" fill="url(#gl1)"/><line x1="150" y1="0" x2="150" y2="328.8" stroke="#E2C177" stroke-width="2.8" opacity="0.8"/><g transform="translate(150 396) scale(0.7)"><rect x="-8" y="-96" width="16" height="18" rx="5" fill="#B98A3E"/><path d="M -34 -78 H 34 L 26 -58 H -26 Z" fill="#E2C177"/><rect x="-30" y="-58" width="60" height="86" rx="14" fill="#F5E7BE"/><rect x="-30" y="-58" width="60" height="86" rx="14" fill="none" stroke="#E2C177" stroke-width="7"/><line x1="-10" y1="-58" x2="-10" y2="28" stroke="#E2C177" stroke-width="4"/><line x1="10" y1="-58" x2="10" y2="28" stroke="#E2C177" stroke-width="4"/><path d="M -26 28 H 26 L 18 46 H -18 Z" fill="#E2C177"/><circle cx="0" cy="60" r="8" fill="#B98A3E"/></g><line x1="874" y1="0" x2="874" y2="328.8" stroke="#E2C177" stroke-width="2.8" opacity="0.8"/><g transform="translate(874 396) scale(0.7)"><rect x="-8" y="-96" width="16" height="18" rx="5" fill="#B98A3E"/><path d="M -34 -78 H 34 L 26 -58 H -26 Z" fill="#E2C177"/><rect x="-30" y="-58" width="60" height="86" rx="14" fill="#F5E7BE"/><rect x="-30" y="-58" width="60" height="86" rx="14" fill="none" stroke="#E2C177" stroke-width="7"/><line x1="-10" y1="-58" x2="-10" y2="28" stroke="#E2C177" stroke-width="4"/><line x1="10" y1="-58" x2="10" y2="28" stroke="#E2C177" stroke-width="4"/><path d="M -26 28 H 26 L 18 46 H -18 Z" fill="#E2C177"/><circle cx="0" cy="60" r="8" fill="#B98A3E"/></g><rect x="0" y="646" width="1024" height="378" fill="#6E4629"/><rect x="0" y="646" width="1024" height="26" fill="#54382A"/><rect x="143.36" y="672" width="737.28" height="378" fill="#8A5A36" opacity="0.55"/><path d="M 444 596 q -17.099999999999998 -24.7 0 -49.4 q 17.099999999999998 -24.7 0 -49.4" stroke="#F5E7BE" stroke-width="8.549999999999999" stroke-linecap="round" fill="none" opacity="0.8"/><path d="M 512 584 q -20.7 -29.9 0 -59.8 q 20.7 -29.9 0 -59.8" stroke="#F5E7BE" stroke-width="10.35" stroke-linecap="round" fill="none" opacity="0.8"/><path d="M 580 596 q -17.099999999999998 -24.7 0 -49.4 q 17.099999999999998 -24.7 0 -49.4" stroke="#F5E7BE" stroke-width="8.549999999999999" stroke-linecap="round" fill="none" opacity="0.8"/><g transform="translate(512 726) scale(1)"><path d="M -110 -60 A 110 110 0 0 0 110 -60 L 96 -34 Q 0 12 -96 -34 Z" fill="#B8683C"/><ellipse cx="0" cy="-60" rx="110" ry="24" fill="#F5E7BE"/><ellipse cx="0" cy="-60" rx="86" ry="16" fill="#D9A05B"/><rect x="-34" y="-6" width="68" height="12" rx="6" fill="#8A4A28"/></g><g transform="translate(252 736) scale(0.9)"><ellipse cx="0" cy="0" rx="96" ry="34" fill="#D9A05B"/><ellipse cx="0" cy="-10" rx="96" ry="30" fill="#E8C089"/><path d="M -50 -18 q 10 -10 20 0 M -6 -24 q 10 -10 20 0 M 38 -16 q 10 -10 20 0" stroke="#B8683C" stroke-width="6" fill="none" stroke-linecap="round"/></g><g transform="translate(792 730) scale(0.95)"><path d="M -34 -76 L -26 0 H 26 L 34 -76 Z" fill="#5E8A6A"/><ellipse cx="0" cy="-76" rx="34" ry="10" fill="#F5E7BE"/></g><path d="M 330 508 Q 332.16 517.84 342 520 Q 332.16 522.16 330 532 Q 327.84 522.16 318 520 Q 327.84 517.84 330 508 Z" fill="#E2C177" opacity="0.9"/><path d="M 710 494 Q 711.98 503.02 721 505 Q 711.98 506.98 710 516 Q 708.02 506.98 699 505 Q 708.02 503.02 710 494 Z" fill="#F5E7BE" opacity="0.9"/><rect x="0" y="964" width="1024" height="60" fill="#4A2F22"/></svg>