<svg xmlns="http://www.w3.org/2000/svg" viewBox="0 0 1600 1200"><defs><linearGradient id="sky49" x1="0" y1="0" x2="0" y2="1"><stop offset="0" stop-color="#8A5A36"/><stop offset="1" stop-color="#54382A"/></linearGradient><radialGradient id="glow50"><stop offset="0" stop-color="#F5E7BE" stop-opacity="0.4"/><stop offset="1" stop-color="#F5E7BE" stop-opacity="0"/></radialGradient></defs><rect width="1600" height="1200" fill="url(#sky49)"/><circle cx="651" cy="182" r="5.3" fill="#F5E7BE" opacity="0.61"/><circle cx="109" cy="124" r="2.5" fill="#F5E7BE" opacity="0.68"/><circle cx="1485" cy="222" r="5.5" fill="#F5E7BE" opacity="0.63"/><circle cx="68" cy="294" r="5.7" fill="#F5E7BE" opacity="0.84"/><circle cx="745" cy="139" r="5.4" fill="#F5E7BE" opacity="0.39"/><circle cx="283" cy="88" r="4.8" fill="#F5E7BE" opacity="0.49"/><circle cx="587" cy="297" r="3.8" fill="#F5E7BE" opacity="0.55"/><circle cx="944" cy="73" r="4.0" fill="#F5E7BE" opacity="0.52"/><circle cx="209" cy="269" r="3.5" fill="#F5E7BE" opacity="0.68"/><circle cx="465" cy="195" r="2.3" fill="#F5E7BE" opacity="0.63"/><circle cx="962" cy="187" r="2.5" fill="#F5E7BE" opacity="0.38"/><circle cx="419" cy="249" r="5.6" fill="#F5E7BE" opacity="0.50"/><circle cx="478" cy="153" r="5.1" fill="#F5E7BE" opacity="0.36"/><circle cx="697" cy="249" r="2.7" fill="#F5E7BE" opacity="0.74"/><circle cx="976" cy="169" r="5.2" fill="#F5E7BE" opacity="0.45"/><circle cx="1369" cy="273" r="4.8" fill="#F5E7BE" opacity="0.80"/><circle cx="800" cy="580" r="440" fill="url(#glow50)"/><rect x="477" y="372" width="646" height="456" rx="30.4" fill="#EFE3C0"/><rect x="410.5" y="372" width="76" height="456" rx="38" fill="#D8C49A"/><rect x="1113.5" y="372" width="76" height="456" rx="38" fill="#D8C49A"/><line x1="562.5" y1="486" x2="1037.5" y2="486" stroke="#8A7A54" stroke-width="17.099999999999998" stroke-linecap="round" opacity="0.6"/><line x1="562.5" y1="577.2" x2="1037.5" y2="577.2" stroke="#8A7A54" stroke-width="17.099999999999998" stroke-linecap="round" opacity="0.6"/><line x1="562.5" y1="668.4" x2="1037.5" y2="668.4" stroke="#8A7A54" stroke-width="17.099999999999998" stroke-linecap="round" opacity="0.6"/><line x1="648" y1="759.5999999999999" x2="952" y2="759.5999999999999" stroke="#8A7A54" stroke-width="17.099999999999998" stroke-linecap="round" opacity="0.6"/><line x1="1290" y1="549" x2="1290" y2="615" stroke="#E2C177" stroke-width="8.8"/><path d="M 1229.5 615 h 121.00000000000001 l 19.8 37.400000000000006 v 132 q 0 61.60000000000001 -80.30000000000001 61.60000000000001 t -80.30000000000001 -61.60000000000001 v -132 Z" fill="#E2C177"/><rect x="1261.4" y="650.2" width="57.2" height="165" rx="11" fill="#F5E7BE"/><circle cx="1290" cy="865.8" r="17.6" fill="#E2C177"/><path d="M0 1200 L0 1080 Q 400 980 800 1050 T 1600 1030 L 1600 1200 Z" fill="#3D2A20"/></svg>